<svg xmlns="http://www.w3.org/2000/svg" xmlns:xlink="http://www.w3.org/1999/xlink" width="206.946" height="213.151" viewBox="0 0 206.946 213.151">
  <defs>
    <radialGradient id="radial-gradient" cx="0.292" cy="0.19" r="0.555" gradientTransform="matrix(1.824, -0.328, 0.633, 0.945, -1.23, 0.487)" gradientUnits="objectBoundingBox">
      <stop offset="0" stop-color="#c7bde7"/>
      <stop offset="1" stop-color="#8d75b4"/>
    </radialGradient>
    <linearGradient id="linear-gradient" x1="1.401" y1="0.855" x2="1.74" y2="-0.122" gradientUnits="objectBoundingBox">
      <stop offset="0.017" stop-color="#d4cbe2"/>
      <stop offset="1" stop-color="#f3e6ee"/>
    </linearGradient>
    <clipPath id="clip-path">
      <path id="Path_267" data-name="Path 267" d="M98.4,45.583l17.182-17.634a1.393,1.393,0,0,1,.658-.378l9.385-2.358a1.391,1.391,0,0,1,1.49,2.131l-9.6,14.14a1.39,1.39,0,0,1-.7.535L99.856,47.87A1.392,1.392,0,0,1,98.4,45.583Z" transform="translate(-98.002 -25.168)" fill="#0fbf61" clip-rule="evenodd"/>
    </clipPath>
    <clipPath id="clip-path-2">
      <path id="Path_360" data-name="Path 360" d="M99.758,44.439,122.3,48.786a1.412,1.412,0,0,0,.627-.023l9.927-2.677a1.391,1.391,0,0,0,.274-2.581l-15.006-7.693a1.387,1.387,0,0,0-1.089-.078L99.568,41.757A1.391,1.391,0,0,0,99.758,44.439Z" transform="translate(-98.63 -35.657)" fill="#0fbf61" clip-rule="evenodd"/>
    </clipPath>
  </defs>
  <g id="Arrow" transform="translate(-10.962 -1.089)">
    <path id="Path_172" data-name="Path 172" d="M48.1,8.349c-2.145.213-7.446,1.159-14.606,5.337a1.372,1.372,0,0,0-.278.208c-2.135,2.08-30.713,31.8-4.616,106.994,25.421,73.242,66.9,77.081,69.218,77.238a.974.974,0,0,0,.2,0c1.114-.1,11.386-1.154,17.7-8.038,4.8-5.233-60.644-167.168-66.2-180.875A1.381,1.381,0,0,0,48.1,8.349Z" transform="translate(6.44 6.952)" fill-rule="evenodd" fill="url(#radial-gradient)"/>
    <ellipse id="Ellipse_35" data-name="Ellipse 35" cx="45.201" cy="97.124" rx="45.201" ry="97.124" transform="matrix(0.945, -0.328, 0.328, 0.945, 10.962, 30.731)" fill="url(#linear-gradient)"/>
    <path id="Path_173" data-name="Path 173" d="M45.282,14.108c-20.863,7.24-25.164,49.453-9.6,94.282s45.086,75.3,65.949,68.062S126.791,127,111.233,82.168,66.147,6.866,45.282,14.108ZM99.494,166.47c-18.406,6.389-44.451-20.491-58.176-60.037s-9.931-76.781,8.474-83.17S94.241,43.757,107.966,83.3,117.9,160.084,99.494,166.47Z" transform="translate(14.726 11.457)" fill="#0fbf61" fill-rule="evenodd"/>
    <path id="Path_174" data-name="Path 174" d="M47.687,26.608C33.2,31.635,30.218,60.939,41.019,92.061s31.3,52.277,45.785,47.25,17.469-34.332,6.667-65.454S62.172,21.58,47.687,26.608ZM84.338,129.546c-12.048,4.181-29.1-13.415-38.082-39.3S39.754,39.982,51.8,35.8,80.9,49.216,89.884,75.1,96.384,125.365,84.338,129.546Z" transform="translate(22.587 23.75)" fill="#0fbf61" fill-rule="evenodd"/>
    <path id="Path_175" data-name="Path 175" d="M51.148,41.571c-6.584,2.286-7.943,15.611-3.032,29.761S62.349,95.1,68.933,92.814s7.944-15.609,3.032-29.761S57.734,39.286,51.148,41.571Z" transform="translate(32.782 38.478)" fill="#0fbf61" fill-rule="evenodd"/>
    <path id="Path_176" data-name="Path 176" d="M19.521,50.166,24.895,48.3a1.369,1.369,0,0,0,.934-1.277c.061-3.7.454-17.262,2.947-25.5a1.385,1.385,0,0,0-1.792-1.694L23.277,21.12a1.376,1.376,0,0,0-.87.889c-.938,3-4.694,15.715-4.736,26.864A1.386,1.386,0,0,0,19.521,50.166Z" transform="translate(6.432 17.889)" fill="#fbf9fa" fill-rule="evenodd" opacity="0.8" style="mix-blend-mode: soft-light;isolation: isolate"/>
    <path id="Path_177" data-name="Path 177" d="M48.077,101.115,52.1,98.837a1.38,1.38,0,0,1,1.549.121,40.444,40.444,0,0,0,9.781,5.842,1.388,1.388,0,0,1-.08,2.6l-3.938,1.367a1.361,1.361,0,0,1-.964-.018,70.781,70.781,0,0,1-10.433-5.235A1.4,1.4,0,0,1,48.077,101.115Z" transform="translate(34.896 93.513)" fill="#401734" fill-rule="evenodd" opacity="0.3" style="mix-blend-mode: multiply;isolation: isolate"/>
    <g id="Group_273" data-name="Group 273" transform="translate(92.611 48.247)">
      <path id="Path_178" data-name="Path 178" d="M53.073,71.559l13.533-13.19a1.391,1.391,0,0,1,2.315.64L70.037,63.2a1.393,1.393,0,0,0,1.8.958l87.453-30.174a1.393,1.393,0,0,1,1.8.977l.257,1.016a1.393,1.393,0,0,1-.9,1.655L72.828,67.86a1.392,1.392,0,0,0-.883,1.7l1.061,3.735a1.393,1.393,0,0,1-1.34,1.772l-17.342,0a1.394,1.394,0,0,1-1.349-1.054l-.28-1.118A1.392,1.392,0,0,1,53.073,71.559Z" transform="translate(-52.652 -16.791)" fill="#151d41" fill-rule="evenodd"/>
      <g id="Group_269" data-name="Group 269" transform="translate(88.816)">
        <g id="Group_268" data-name="Group 268">
          <path id="Path_179" data-name="Path 179" d="M98.4,45.583l17.182-17.634a1.393,1.393,0,0,1,.658-.378l9.385-2.358a1.391,1.391,0,0,1,1.49,2.131l-9.6,14.14a1.39,1.39,0,0,1-.7.535L99.856,47.87A1.392,1.392,0,0,1,98.4,45.583Z" transform="translate(-98.002 -25.168)" fill="#0fbf61" fill-rule="evenodd"/>
          <g id="Group_267" data-name="Group 267" clip-path="url(#clip-path)">
            <rect id="Rectangle_140" data-name="Rectangle 140" width="34.857" height="25.46" transform="translate(-3.687 -0.846)" fill="#0fbf61"/>
            <path id="Path_180" data-name="Path 180" d="M133.873,24.815v2.428h12.9c-2.951,5.8-8.3,12.242-15.337,17.967-14.079,11.447-29.606,15.67-34.68,9.428s2.225-20.581,16.3-32.029v2.205Z" transform="translate(-100.745 -27.62)" fill="#0fbf61" fill-rule="evenodd"/>
            <path id="Path_181" data-name="Path 181" d="M133.729,24.755v2.5h12.632c-2.92,5.732-8.206,12.109-15.17,17.771-13.927,11.324-29.285,15.5-34.3,9.326s2.2-20.358,16.128-31.68v2.082Z" transform="translate(-100.601 -27.56)" fill="#0fbf61" fill-rule="evenodd"/>
            <path id="Path_182" data-name="Path 182" d="M133.585,24.7v2.573H145.95c-2.887,5.67-8.116,11.976-15,17.577-13.774,11.2-28.964,15.327-33.926,9.222S99.2,33.935,112.97,22.735V24.7Z" transform="translate(-100.456 -27.5)" fill="#0fbf61" fill-rule="evenodd"/>
            <path id="Path_183" data-name="Path 183" d="M133.44,24.635v2.646h12.1c-2.855,5.607-8.026,11.845-14.837,17.381-13.619,11.075-28.64,15.158-33.55,9.121s2.154-19.91,15.773-30.985v1.837Z" transform="translate(-100.312 -27.44)" fill="#0fbf61" fill-rule="evenodd"/>
            <path id="Path_184" data-name="Path 184" d="M133.3,24.575v2.718h11.831c-2.822,5.544-7.934,11.712-14.669,17.185-13.466,10.95-28.319,14.988-33.172,9.019s2.129-19.686,15.6-30.636v1.714Z" transform="translate(-100.168 -27.38)" fill="#0fbf61" fill-rule="evenodd"/>
            <path id="Path_185" data-name="Path 185" d="M133.152,24.515v2.791h11.565c-2.789,5.482-7.844,11.578-14.5,16.99-13.314,10.826-28,14.818-32.8,8.917s2.105-19.463,15.419-30.29v1.592Z" transform="translate(-100.024 -27.32)" fill="#0fbf61" fill-rule="evenodd"/>
            <path id="Path_186" data-name="Path 186" d="M133.008,24.455v2.863h11.3c-2.758,5.419-7.754,11.445-14.336,16.8-13.161,10.7-27.675,14.647-32.418,8.813s2.08-19.24,15.241-29.941v1.469Z" transform="translate(-99.879 -27.26)" fill="#0fbf61" fill-rule="evenodd"/>
            <path id="Path_187" data-name="Path 187" d="M132.864,24.394V27.33H143.9c-2.726,5.354-7.663,11.312-14.169,16.6-13.008,10.578-27.354,14.477-32.042,8.711s2.056-19.017,15.064-29.592v1.345Z" transform="translate(-99.736 -27.199)" fill="#0fbf61" fill-rule="evenodd"/>
            <path id="Path_188" data-name="Path 188" d="M132.719,24.334v3.008h10.766c-2.695,5.292-7.575,11.179-14,16.4C116.627,54.2,102.449,58.053,97.818,52.356S99.849,33.564,112.7,23.112v1.222Z" transform="translate(-99.591 -27.139)" fill="#0fbf61" fill-rule="evenodd"/>
            <path id="Path_189" data-name="Path 189" d="M132.575,24.275v3.081h10.5c-2.662,5.229-7.485,11.046-13.837,16.21-12.7,10.327-26.709,14.134-31.288,8.5s2.007-18.566,14.71-28.9v1.1Z" transform="translate(-99.447 -27.08)" fill="#0fbf61" fill-rule="evenodd"/>
            <path id="Path_190" data-name="Path 190" d="M132.431,24.214v3.153h10.233c-2.63,5.166-7.4,10.913-13.67,16.014-12.548,10.2-26.388,13.966-30.91,8.4s1.984-18.343,14.532-28.546v.977Z" transform="translate(-99.303 -27.019)" fill="#0fbf61" fill-rule="evenodd"/>
            <path id="Path_191" data-name="Path 191" d="M132.287,24.154v3.226h9.967c-2.6,5.1-7.305,10.779-13.5,15.818-12.4,10.08-26.067,13.8-30.534,8.3s1.96-18.12,14.355-28.2v.854Z" transform="translate(-99.159 -26.959)" fill="#0fbf61" fill-rule="evenodd"/>
            <path id="Path_192" data-name="Path 192" d="M132.143,24.094v3.3h9.7c-2.568,5.041-7.215,10.646-13.337,15.623-12.242,9.955-25.744,13.625-30.156,8.2s1.935-17.9,14.177-27.851v.732Z" transform="translate(-99.014 -26.899)" fill="#0fbf61" fill-rule="evenodd"/>
            <path id="Path_193" data-name="Path 193" d="M132,24.034V27.4h9.432c-2.532,4.976-7.123,10.513-13.169,15.429-12.09,9.83-25.423,13.455-29.78,8.094s1.911-17.671,14-27.5v.609Z" transform="translate(-98.87 -26.839)" fill="#0fbf61" fill-rule="evenodd"/>
            <path id="Path_194" data-name="Path 194" d="M131.854,23.974v3.443h9.166c-2.5,4.914-7.033,10.38-13,15.233-11.937,9.706-25.1,13.284-29.4,7.992s1.886-17.448,13.823-27.154v.486Z" transform="translate(-98.726 -26.779)" fill="#0fbf61" fill-rule="evenodd"/>
            <path id="Path_195" data-name="Path 195" d="M131.71,23.913v3.515h8.9c-2.47,4.851-6.943,10.247-12.836,15.037C115.99,52.049,103,55.58,98.748,50.356s1.862-17.225,13.647-26.805v.362Z" transform="translate(-98.582 -26.718)" fill="#0fbf61" fill-rule="evenodd"/>
            <path id="Path_196" data-name="Path 196" d="M141,19.637c4.193,5.155-1.839,17-13.47,26.459s-24.457,12.943-28.648,7.787,1.837-17,13.468-26.459v.241h19.216Z" transform="translate(-98.438 -30.47)" fill="#0fbf61" fill-rule="evenodd"/>
            <path id="Path_197" data-name="Path 197" d="M140.58,19.752c4.136,5.088-1.815,16.778-13.294,26.11S103.15,58.635,99.013,53.547s1.814-16.778,13.292-26.11v.118h19.116Z" transform="translate(-98.294 -30.359)" fill="#0fbf61" fill-rule="evenodd"/>
            <ellipse id="Ellipse_36" data-name="Ellipse 36" cx="26.428" cy="11.715" rx="26.428" ry="11.715" transform="translate(-6.393 13.873) rotate(-39.114)" fill="#0fbf61"/>
            <path id="Path_198" data-name="Path 198" d="M139.737,21.1c4.027,4.951-1.767,16.33-12.938,25.413S103.306,58.95,99.279,54s1.767-16.33,12.938-25.415S135.71,16.15,139.737,21.1Z" transform="translate(-98.005 -31.26)" fill="#0fbf61" fill-rule="evenodd"/>
            <path id="Path_199" data-name="Path 199" d="M139.315,21.2c3.972,4.884-1.741,16.106-12.759,25.066S103.383,58.53,99.411,53.646s1.743-16.106,12.761-25.066S135.343,16.317,139.315,21.2Z" transform="translate(-97.861 -31.134)" fill="#0fbf61" fill-rule="evenodd"/>
            <path id="Path_200" data-name="Path 200" d="M138.895,21.3c3.915,4.816-1.718,15.883-12.583,24.718s-22.849,12.092-26.766,7.276,1.718-15.883,12.583-24.718S134.978,16.486,138.895,21.3Z" transform="translate(-97.717 -31.008)" fill="#0fbf61" fill-rule="evenodd"/>
            <path id="Path_201" data-name="Path 201" d="M138.472,21.4c3.862,4.749-1.692,15.66-12.4,24.369s-22.528,11.923-26.39,7.174,1.694-15.66,12.407-24.369S134.612,16.652,138.472,21.4Z" transform="translate(-97.573 -30.883)" fill="#0fbf61" fill-rule="evenodd"/>
            <path id="Path_202" data-name="Path 202" d="M138.052,21.5c3.805,4.681-1.671,15.437-12.229,24.022s-22.207,11.751-26.012,7.07,1.669-15.437,12.229-24.022S134.246,16.82,138.052,21.5Z" transform="translate(-97.428 -30.757)" fill="#0fbf61" fill-rule="evenodd"/>
            <path id="Path_203" data-name="Path 203" d="M137.63,21.6c3.75,4.612-1.645,15.211-12.05,23.674S103.7,56.854,99.943,52.242,101.588,37.031,112,28.568,133.879,16.988,137.63,21.6Z" transform="translate(-97.285 -30.631)" fill="#0fbf61" fill-rule="evenodd"/>
            <path id="Path_204" data-name="Path 204" d="M137.209,21.7c3.7,4.546-1.622,14.988-11.874,23.325s-21.563,11.412-25.258,6.866S101.7,36.9,111.951,28.567,133.513,17.155,137.209,21.7Z" transform="translate(-97.14 -30.506)" fill="#0fbf61" fill-rule="evenodd"/>
            <path id="Path_205" data-name="Path 205" d="M136.787,21.8c3.641,4.477-1.6,14.765-11.7,22.977s-21.241,11.242-24.882,6.765,1.6-14.765,11.7-22.979S133.148,17.323,136.787,21.8Z" transform="translate(-96.996 -30.38)" fill="#0fbf61" fill-rule="evenodd"/>
            <path id="Path_206" data-name="Path 206" d="M136.367,21.9c3.584,4.41-1.573,14.542-11.52,22.63s-20.918,11.069-24.5,6.661,1.573-14.542,11.52-22.63S132.781,17.491,136.367,21.9Z" transform="translate(-96.852 -30.255)" fill="#0fbf61" fill-rule="evenodd"/>
            <path id="Path_207" data-name="Path 207" d="M135.944,22c3.531,4.342-1.547,14.318-11.341,22.281s-20.6,10.9-24.128,6.559,1.549-14.318,11.343-22.281S132.415,17.657,135.944,22Z" transform="translate(-96.708 -30.129)" fill="#0fbf61" fill-rule="evenodd"/>
            <ellipse id="Ellipse_37" data-name="Ellipse 37" cx="22.5" cy="9.974" rx="22.5" ry="9.974" transform="matrix(0.776, -0.631, 0.631, 0.776, -2.247, 12.746)" fill="#0fbf61"/>
            <path id="Path_208" data-name="Path 208" d="M135.1,22.2c3.421,4.207-1.5,13.87-10.987,21.584s-19.953,10.56-23.374,6.355,1.5-13.87,10.989-21.586S131.682,17.993,135.1,22.2Z" transform="translate(-96.419 -29.878)" fill="#0fbf61" fill-rule="evenodd"/>
            <path id="Path_209" data-name="Path 209" d="M134.681,22.3c3.365,4.138-1.477,13.647-10.811,21.238s-19.632,10.388-23,6.251,1.475-13.647,10.811-21.238S131.317,18.16,134.681,22.3Z" transform="translate(-96.275 -29.752)" fill="#0fbf61" fill-rule="evenodd"/>
            <path id="Path_210" data-name="Path 210" d="M134.259,22.4c3.31,4.072-1.451,13.423-10.632,20.889s-19.31,10.219-22.62,6.148,1.453-13.421,10.634-20.887S130.951,18.328,134.259,22.4Z" transform="translate(-96.131 -29.627)" fill="#0fbf61" fill-rule="evenodd"/>
            <path id="Path_211" data-name="Path 211" d="M133.839,22.5c3.255,4-1.428,13.2-10.456,20.54S104.4,53.086,101.14,49.083s1.428-13.2,10.456-20.538S130.584,18.5,133.839,22.5Z" transform="translate(-95.987 -29.501)" fill="#0fbf61" fill-rule="evenodd"/>
            <ellipse id="Ellipse_38" data-name="Ellipse 38" cx="20.714" cy="9.182" rx="20.714" ry="9.182" transform="translate(-0.362 12.234) rotate(-39.114)" fill="#0fbf61"/>
            <path id="Path_212" data-name="Path 212" d="M133,22.7c3.143,3.866-1.379,12.75-10.1,19.843s-18.345,9.708-21.488,5.84,1.379-12.75,10.1-19.843S129.852,18.83,133,22.7Z" transform="translate(-95.698 -29.25)" fill="#0fbf61" fill-rule="evenodd"/>
            <path id="Path_213" data-name="Path 213" d="M132.574,22.8c3.09,3.8-1.353,12.526-9.924,19.494s-18.022,9.538-21.112,5.738,1.355-12.526,9.925-19.494S129.485,19,132.574,22.8Z" transform="translate(-95.554 -29.124)" fill="#0fbf61" fill-rule="evenodd"/>
            <ellipse id="Ellipse_39" data-name="Ellipse 39" cx="19.643" cy="8.707" rx="19.643" ry="8.707" transform="translate(0.769 11.926) rotate(-39.114)" fill="#0fbf61"/>
            <path id="Path_214" data-name="Path 214" d="M131.731,23c2.979,3.662-1.306,12.08-9.569,18.8s-17.379,9.2-20.358,5.533,1.306-12.08,9.571-18.8S128.754,19.333,131.731,23Z" transform="translate(-95.266 -28.873)" fill="#0fbf61" fill-rule="evenodd"/>
            <path id="Path_215" data-name="Path 215" d="M131.311,23.1c2.924,3.6-1.283,11.857-9.393,18.451s-17.056,9.027-19.98,5.431,1.283-11.857,9.393-18.451S128.387,19.5,131.311,23.1Z" transform="translate(-95.121 -28.747)" fill="#0fbf61" fill-rule="evenodd"/>
            <ellipse id="Ellipse_40" data-name="Ellipse 40" cx="18.571" cy="8.232" rx="18.571" ry="8.232" transform="matrix(0.776, -0.631, 0.631, 0.776, 1.9, 11.619)" fill="#0fbf61"/>
            <path id="Path_216" data-name="Path 216" d="M130.468,23.3c2.812,3.459-1.234,11.408-9.038,17.755s-16.414,8.686-19.226,5.225,1.234-11.408,9.038-17.755S127.656,19.835,130.468,23.3Z" transform="translate(-94.833 -28.496)" fill="#0fbf61" fill-rule="evenodd"/>
            <path id="Path_217" data-name="Path 217" d="M130.046,23.4c2.759,3.392-1.208,11.185-8.86,17.407s-16.093,8.515-18.85,5.123,1.21-11.185,8.862-17.407S127.288,20,130.046,23.4Z" transform="translate(-94.689 -28.37)" fill="#0fbf61" fill-rule="evenodd"/>
            <path id="Path_218" data-name="Path 218" d="M129.625,23.495c2.7,3.324-1.185,10.961-8.684,17.058s-15.769,8.345-18.472,5.021,1.185-10.961,8.684-17.058S126.923,20.171,129.625,23.495Z" transform="translate(-94.544 -28.245)" fill="#0fbf61" fill-rule="evenodd"/>
            <path id="Path_219" data-name="Path 219" d="M129.2,23.595c2.648,3.257-1.159,10.738-8.506,16.71s-15.448,8.177-18.1,4.92,1.161-10.738,8.508-16.712S126.558,20.338,129.2,23.595Z" transform="translate(-94.401 -28.119)" fill="#0fbf61" fill-rule="evenodd"/>
            <path id="Path_220" data-name="Path 220" d="M128.783,23.694c2.593,3.188-1.138,10.515-8.329,16.363s-15.127,8-17.718,4.816,1.136-10.515,8.329-16.363S126.19,20.506,128.783,23.694Z" transform="translate(-94.256 -27.994)" fill="#0fbf61" fill-rule="evenodd"/>
            <path id="Path_221" data-name="Path 221" d="M128.361,23.794c2.538,3.12-1.112,10.29-8.151,16.014s-14.8,7.834-17.342,4.714,1.114-10.29,8.153-16.014S125.824,20.674,128.361,23.794Z" transform="translate(-94.112 -27.868)" fill="#0fbf61" fill-rule="evenodd"/>
            <path id="Path_222" data-name="Path 222" d="M127.94,23.894c2.481,3.053-1.089,10.066-7.975,15.666S105.483,47.225,103,44.172s1.089-10.066,7.975-15.666S125.459,20.84,127.94,23.894Z" transform="translate(-93.968 -27.743)" fill="#0fbf61" fill-rule="evenodd"/>
            <path id="Path_223" data-name="Path 223" d="M127.52,23.993c2.427,2.985-1.065,9.843-7.8,15.319s-14.162,7.493-16.588,4.508,1.065-9.843,7.8-15.319S125.092,21.008,127.52,23.993Z" transform="translate(-93.824 -27.617)" fill="#0fbf61" fill-rule="evenodd"/>
            <path id="Path_224" data-name="Path 224" d="M127.1,24.093c2.372,2.918-1.04,9.62-7.62,14.97s-13.838,7.323-16.21,4.407,1.04-9.62,7.62-14.97S124.726,21.176,127.1,24.093Z" transform="translate(-93.679 -27.491)" fill="#0fbf61" fill-rule="evenodd"/>
            <path id="Path_225" data-name="Path 225" d="M126.678,24.193c2.315,2.85-1.016,9.4-7.444,14.622s-13.517,7.154-15.834,4.3,1.016-9.4,7.444-14.622S124.361,21.343,126.678,24.193Z" transform="translate(-93.535 -27.366)" fill="#0fbf61" fill-rule="evenodd"/>
            <path id="Path_226" data-name="Path 226" d="M126.255,24.292c2.262,2.781-.991,9.171-7.266,14.273s-13.2,6.984-15.456,4.2.991-9.173,7.266-14.275S123.993,21.511,126.255,24.292Z" transform="translate(-93.391 -27.24)" fill="#0fbf61" fill-rule="evenodd"/>
            <path id="Path_227" data-name="Path 227" d="M125.835,24.391c2.205,2.714-.969,8.948-7.09,13.927s-12.873,6.812-15.08,4.1.967-8.948,7.09-13.927S123.627,21.679,125.835,24.391Z" transform="translate(-93.247 -27.114)" fill="#0fbf61" fill-rule="evenodd"/>
            <path id="Path_228" data-name="Path 228" d="M125.412,24.491c2.15,2.646-.944,8.725-6.911,13.578s-12.552,6.643-14.7,4,.942-8.725,6.911-13.578S123.262,21.846,125.412,24.491Z" transform="translate(-93.103 -26.989)" fill="#0fbf61" fill-rule="evenodd"/>
            <path id="Path_229" data-name="Path 229" d="M124.992,24.591c2.1,2.579-.92,8.5-6.735,13.229s-12.231,6.473-14.326,3.9.92-8.5,6.735-13.229S122.895,22.014,124.992,24.591Z" transform="translate(-92.959 -26.863)" fill="#0fbf61" fill-rule="evenodd"/>
            <path id="Path_230" data-name="Path 230" d="M124.569,24.691c2.041,2.511-.9,8.278-6.557,12.883s-11.907,6.3-13.948,3.792.9-8.278,6.557-12.883S122.529,22.182,124.569,24.691Z" transform="translate(-92.814 -26.738)" fill="#0fbf61" fill-rule="evenodd"/>
            <path id="Path_231" data-name="Path 231" d="M124.15,24.79c1.984,2.442-.872,8.055-6.381,12.534s-11.586,6.13-13.572,3.688.872-8.053,6.381-12.532S122.164,22.348,124.15,24.79Z" transform="translate(-92.67 -26.612)" fill="#0fbf61" fill-rule="evenodd"/>
            <path id="Path_232" data-name="Path 232" d="M123.727,24.89c1.931,2.376-.846,7.83-6.2,12.186s-11.265,5.962-13.194,3.586.846-7.828,6.2-12.184S121.8,22.516,123.727,24.89Z" transform="translate(-92.526 -26.486)" fill="#0fbf61" fill-rule="evenodd"/>
            <path id="Path_233" data-name="Path 233" d="M123.307,24.989c1.874,2.307-.823,7.607-6.026,11.837s-10.942,5.791-12.818,3.484.823-7.6,6.026-11.837S121.431,22.684,123.307,24.989Z" transform="translate(-92.382 -26.361)" fill="#0fbf61" fill-rule="evenodd"/>
            <path id="Path_234" data-name="Path 234" d="M122.884,25.091c1.819,2.239-.8,7.381-5.848,11.488s-10.621,5.619-12.44,3.38.8-7.381,5.848-11.488S121.065,22.85,122.884,25.091Z" transform="translate(-92.237 -26.235)" fill="#0fbf61" fill-rule="evenodd"/>
            <path id="Path_235" data-name="Path 235" d="M122.464,25.19c1.765,2.17-.776,7.158-5.672,11.14s-10.3,5.45-12.064,3.278.774-7.158,5.672-11.14S120.7,23.018,122.464,25.19Z" transform="translate(-92.093 -26.109)" fill="#0fbf61" fill-rule="evenodd"/>
            <path id="Path_236" data-name="Path 236" d="M122.041,25.29c1.71,2.1-.75,6.935-5.493,10.791s-9.976,5.28-11.686,3.177.75-6.935,5.493-10.791S120.332,23.186,122.041,25.29Z" transform="translate(-91.949 -25.984)" fill="#0fbf61" fill-rule="evenodd"/>
            <path id="Path_237" data-name="Path 237" d="M121.622,25.39c1.655,2.035-.727,6.71-5.317,10.442s-9.655,5.11-11.31,3.075.727-6.712,5.317-10.444S119.967,23.353,121.622,25.39Z" transform="translate(-91.805 -25.858)" fill="#0fbf61" fill-rule="evenodd"/>
            <path id="Path_238" data-name="Path 238" d="M121.2,25.489c1.6,1.966-.7,6.486-5.139,10.1s-9.334,4.939-10.932,2.971.7-6.486,5.139-10.1S119.6,23.521,121.2,25.489Z" transform="translate(-91.661 -25.733)" fill="#0fbf61" fill-rule="evenodd"/>
            <path id="Path_239" data-name="Path 239" d="M120.779,25.589c1.543,1.9-.678,6.263-4.963,9.747s-9.011,4.769-10.556,2.869.678-6.263,4.963-9.747S119.234,23.689,120.779,25.589Z" transform="translate(-91.516 -25.607)" fill="#0fbf61" fill-rule="evenodd"/>
            <path id="Path_240" data-name="Path 240" d="M120.357,25.688c1.49,1.831-.652,6.04-4.785,9.4s-8.69,4.6-10.178,2.767.652-6.04,4.785-9.4S118.868,23.857,120.357,25.688Z" transform="translate(-91.372 -25.481)" fill="#0fbf61" fill-rule="evenodd"/>
            <path id="Path_241" data-name="Path 241" d="M119.936,25.788c1.434,1.763-.631,5.817-4.608,9.052s-8.368,4.428-9.8,2.664.629-5.817,4.608-9.052S118.5,24.024,119.936,25.788Z" transform="translate(-91.228 -25.356)" fill="#0fbf61" fill-rule="evenodd"/>
            <path id="Path_242" data-name="Path 242" d="M119.514,25.888c1.379,1.7-.605,5.591-4.43,8.7s-8.045,4.258-9.424,2.562.6-5.593,4.43-8.7S118.135,24.192,119.514,25.888Z" transform="translate(-91.084 -25.23)" fill="#0fbf61" fill-rule="evenodd"/>
            <path id="Path_243" data-name="Path 243" d="M119.094,25.987c1.324,1.627-.582,5.368-4.254,8.355s-7.724,4.087-9.048,2.46.582-5.368,4.254-8.355S117.77,24.36,119.094,25.987Z" transform="translate(-90.94 -25.104)" fill="#0fbf61" fill-rule="evenodd"/>
            <path id="Path_244" data-name="Path 244" d="M118.671,26.087c1.269,1.561-.556,5.145-4.076,8.006s-7.4,3.919-8.67,2.358.556-5.145,4.076-8.008S117.4,24.526,118.671,26.087Z" transform="translate(-90.795 -24.979)" fill="#0fbf61" fill-rule="evenodd"/>
            <path id="Path_245" data-name="Path 245" d="M118.251,26.187c1.212,1.492-.533,4.922-3.9,7.66s-7.08,3.747-8.294,2.254.533-4.922,3.9-7.66S117.037,24.694,118.251,26.187Z" transform="translate(-90.652 -24.853)" fill="#0fbf61" fill-rule="evenodd"/>
            <path id="Path_246" data-name="Path 246" d="M117.829,26.286c1.159,1.424-.507,4.7-3.721,7.311s-6.759,3.576-7.916,2.152.507-4.7,3.721-7.311S116.671,24.862,117.829,26.286Z" transform="translate(-90.507 -24.728)" fill="#0fbf61" fill-rule="evenodd"/>
            <path id="Path_247" data-name="Path 247" d="M117.408,26.386c1.1,1.357-.484,4.475-3.545,6.962s-6.437,3.408-7.54,2.05.484-4.475,3.545-6.962S116.3,25.029,117.408,26.386Z" transform="translate(-90.363 -24.602)" fill="#0fbf61" fill-rule="evenodd"/>
            <path id="Path_248" data-name="Path 248" d="M116.986,26.486c1.048,1.289-.458,4.25-3.367,6.616s-6.114,3.235-7.162,1.947.458-4.252,3.367-6.616S115.938,25.2,116.986,26.486Z" transform="translate(-90.219 -24.477)" fill="#0fbf61" fill-rule="evenodd"/>
            <path id="Path_249" data-name="Path 249" d="M116.566,26.585c.993,1.222-.437,4.027-3.19,6.267s-5.793,3.065-6.786,1.845.435-4.027,3.19-6.267S115.573,25.365,116.566,26.585Z" transform="translate(-90.075 -24.351)" fill="#0fbf61" fill-rule="evenodd"/>
            <path id="Path_250" data-name="Path 250" d="M116.143,26.685c.938,1.154-.411,3.8-3.012,5.918s-5.472,2.9-6.408,1.743.411-3.8,3.012-5.918S115.205,25.531,116.143,26.685Z" transform="translate(-89.93 -24.225)" fill="#0fbf61" fill-rule="evenodd"/>
            <path id="Path_251" data-name="Path 251" d="M115.723,26.784c.881,1.085-.388,3.58-2.836,5.57S107.739,35.08,106.855,34s.388-3.58,2.836-5.572S114.84,25.7,115.723,26.784Z" transform="translate(-89.786 -24.1)" fill="#0fbf61" fill-rule="evenodd"/>
            <path id="Path_252" data-name="Path 252" d="M115.3,26.884c.828,1.018-.362,3.357-2.658,5.223s-4.828,2.554-5.654,1.537.362-3.357,2.658-5.223S114.474,25.867,115.3,26.884Z" transform="translate(-89.642 -23.974)" fill="#0fbf61" fill-rule="evenodd"/>
            <path id="Path_253" data-name="Path 253" d="M114.88,26.984c.772.95-.339,3.132-2.481,4.875s-4.506,2.383-5.278,1.436.339-3.134,2.481-4.875S114.107,26.034,114.88,26.984Z" transform="translate(-89.498 -23.849)" fill="#0fbf61" fill-rule="evenodd"/>
            <path id="Path_254" data-name="Path 254" d="M114.459,27.083c.717.883-.313,2.908-2.3,4.526s-4.183,2.215-4.9,1.332.315-2.906,2.305-4.524S113.742,26.2,114.459,27.083Z" transform="translate(-89.354 -23.723)" fill="#0fbf61" fill-rule="evenodd"/>
            <path id="Path_255" data-name="Path 255" d="M114.038,27.183c.662.815-.29,2.685-2.127,4.179s-3.862,2.043-4.524,1.228.29-2.683,2.127-4.177S113.376,26.37,114.038,27.183Z" transform="translate(-89.21 -23.597)" fill="#0fbf61" fill-rule="evenodd"/>
            <path id="Path_256" data-name="Path 256" d="M113.616,27.283c.607.746-.266,2.462-1.949,3.831s-3.541,1.872-4.148,1.126.266-2.46,1.951-3.829S113.009,26.537,113.616,27.283Z" transform="translate(-89.065 -23.472)" fill="#0fbf61" fill-rule="evenodd"/>
            <path id="Path_257" data-name="Path 257" d="M113.2,27.384c.55.678-.243,2.237-1.772,3.48s-3.218,1.7-3.77,1.024.241-2.237,1.772-3.48S112.643,26.7,113.2,27.384Z" transform="translate(-88.921 -23.346)" fill="#0fbf61" fill-rule="evenodd"/>
            <path id="Path_258" data-name="Path 258" d="M112.773,27.483c.5.609-.217,2.013-1.594,3.132s-2.9,1.533-3.394.922.219-2.013,1.6-3.134S112.278,26.872,112.773,27.483Z" transform="translate(-88.777 -23.22)" fill="#0fbf61" fill-rule="evenodd"/>
            <path id="Path_259" data-name="Path 259" d="M112.352,27.583c.441.542-.194,1.788-1.418,2.785s-2.575,1.361-3.016.819.194-1.79,1.418-2.785S111.912,27.039,112.352,27.583Z" transform="translate(-88.633 -23.095)" fill="#0fbf61" fill-rule="evenodd"/>
            <path id="Path_260" data-name="Path 260" d="M111.931,27.683c.386.474-.168,1.565-1.24,2.436s-2.252,1.193-2.64.717.17-1.565,1.242-2.436S111.545,27.207,111.931,27.683Z" transform="translate(-88.489 -22.969)" fill="#0fbf61" fill-rule="evenodd"/>
            <path id="Path_261" data-name="Path 261" d="M111.51,27.782c.331.407-.145,1.342-1.063,2.088s-1.931,1.022-2.262.615.145-1.342,1.063-2.088S111.179,27.375,111.51,27.782Z" transform="translate(-88.344 -22.844)" fill="#0fbf61" fill-rule="evenodd"/>
            <path id="Path_262" data-name="Path 262" d="M111.088,27.882c.276.339-.119,1.118-.885,1.741s-1.61.85-1.886.511.121-1.118.887-1.741S110.814,27.543,111.088,27.882Z" transform="translate(-88.2 -22.718)" fill="#0fbf61" fill-rule="evenodd"/>
            <path id="Path_263" data-name="Path 263" d="M110.667,27.982c.221.27-.1.9-.709,1.392s-1.287.682-1.508.409.1-.9.709-1.392S110.446,27.709,110.667,27.982Z" transform="translate(-88.056 -22.592)" fill="#0fbf61" fill-rule="evenodd"/>
            <path id="Path_264" data-name="Path 264" d="M110.245,28.081c.166.2-.072.67-.531,1.044s-.966.511-1.132.307.072-.672.533-1.044S110.081,27.877,110.245,28.081Z" transform="translate(-87.912 -22.467)" fill="#0fbf61" fill-rule="evenodd"/>
            <path id="Path_265" data-name="Path 265" d="M109.824,28.181c.11.135-.049.447-.354.7s-.644.341-.754.206.049-.447.354-.7S109.715,28.046,109.824,28.181Z" transform="translate(-87.767 -22.341)" fill="#0fbf61" fill-rule="evenodd"/>
            <path id="Path_266" data-name="Path 266" d="M109.4,28.28c.057.069-.024.223-.176.349s-.321.17-.378.1.025-.223.178-.349S109.348,28.212,109.4,28.28Z" transform="translate(-87.624 -22.216)" fill="#0fbf61" fill-rule="evenodd"/>
          </g>
        </g>
      </g>
      <g id="Group_272" data-name="Group 272" transform="translate(90.046 20.542)">
        <g id="Group_271" data-name="Group 271">
          <path id="Path_268" data-name="Path 268" d="M99.758,44.439,122.3,48.786a1.412,1.412,0,0,0,.627-.023l9.927-2.677a1.391,1.391,0,0,0,.274-2.581l-15.006-7.693a1.387,1.387,0,0,0-1.089-.078L99.568,41.757A1.391,1.391,0,0,0,99.758,44.439Z" transform="translate(-98.63 -35.657)" fill="#0fbf61" fill-rule="evenodd"/>
          <g id="Group_270" data-name="Group 270" clip-path="url(#clip-path-2)">
            <rect id="Rectangle_141" data-name="Rectangle 141" width="41.679" height="13.307" transform="translate(-3.98 -0.117)" fill="#0fbf61"/>
            <path id="Path_269" data-name="Path 269" d="M138.7,37.486l7.787-1.565c-2.759,5.421-7.759,11.451-14.344,16.806-13.171,10.707-27.695,14.655-32.442,8.819s2.082-19.252,15.252-29.96v5.9Z" transform="translate(-99.046 -39.56)" fill="#0fbf61" fill-rule="evenodd"/>
            <path id="Path_270" data-name="Path 270" d="M138.569,37.429l7.538-1.5c-2.73,5.362-7.675,11.328-14.189,16.623-13.028,10.591-27.393,14.5-32.089,8.723s2.06-19.042,15.088-29.633v5.785Z" transform="translate(-98.911 -39.504)" fill="#0fbf61" fill-rule="evenodd"/>
            <path id="Path_271" data-name="Path 271" d="M138.434,37.374l7.289-1.43c-2.7,5.3-7.591,11.2-14.034,16.439C118.806,62.859,104.6,66.721,99.954,61.01s2.037-18.833,14.92-29.308v5.672Z" transform="translate(-98.776 -39.448)" fill="#0fbf61" fill-rule="evenodd"/>
            <path id="Path_272" data-name="Path 272" d="M138.3,37.317l7.039-1.363c-2.669,5.245-7.507,11.079-13.876,16.259-12.742,10.358-26.792,14.177-31.384,8.531s2.013-18.623,14.755-28.983v5.556Z" transform="translate(-98.641 -39.392)" fill="#0fbf61" fill-rule="evenodd"/>
            <path id="Path_273" data-name="Path 273" d="M138.165,37.261l6.79-1.295c-2.64,5.186-7.423,10.954-13.721,16.075-12.6,10.243-26.49,14.019-31.032,8.435s1.992-18.413,14.591-28.656v5.441Z" transform="translate(-98.506 -39.335)" fill="#0fbf61" fill-rule="evenodd"/>
            <path id="Path_274" data-name="Path 274" d="M145.428,27.62c4.489,5.521-1.97,18.206-14.424,28.331s-26.188,13.86-30.677,8.341,1.968-18.206,14.422-28.333v5.327h23.28Z" transform="translate(-98.371 -43.361)" fill="#0fbf61" fill-rule="evenodd"/>
            <path id="Path_275" data-name="Path 275" d="M145.033,27.728c4.438,5.456-1.945,18-14.258,28.006s-25.887,13.7-30.325,8.243,1.947-18,14.258-28.006v5.211h23.186Z" transform="translate(-98.236 -43.257)" fill="#0fbf61" fill-rule="evenodd"/>
            <path id="Path_276" data-name="Path 276" d="M144.64,27.836c4.385,5.394-1.923,17.785-14.091,27.679s-25.587,13.541-29.974,8.147,1.925-17.787,14.093-27.679v5.1H137.76Z" transform="translate(-98.102 -43.153)" fill="#0fbf61" fill-rule="evenodd"/>
            <path id="Path_277" data-name="Path 277" d="M144.246,27.943c4.334,5.331-1.9,17.577-13.927,27.354S105.034,68.679,100.7,63.35s1.9-17.577,13.925-27.356v4.982h23Z" transform="translate(-97.967 -43.051)" fill="#0fbf61" fill-rule="evenodd"/>
            <path id="Path_278" data-name="Path 278" d="M143.851,28.051c4.283,5.266-1.878,17.368-13.76,27.029S105.107,68.3,100.824,63.035s1.878-17.368,13.76-27.029v4.867H137.49Z" transform="translate(-97.832 -42.947)" fill="#0fbf61" fill-rule="evenodd"/>
            <path id="Path_279" data-name="Path 279" d="M143.458,28.158c4.23,5.2-1.857,17.16-13.594,26.7s-24.684,13.063-28.915,7.859,1.855-17.158,13.594-26.7V40.77h22.812Z" transform="translate(-97.697 -42.845)" fill="#0fbf61" fill-rule="evenodd"/>
            <path id="Path_280" data-name="Path 280" d="M143.064,28.266c4.177,5.141-1.833,16.95-13.429,26.377s-24.383,12.9-28.562,7.765,1.833-16.95,13.429-26.378v4.638H137.22Z" transform="translate(-97.562 -42.741)" fill="#0fbf61" fill-rule="evenodd"/>
            <path id="Path_281" data-name="Path 281" d="M142.669,28.374c4.128,5.076-1.81,16.739-13.263,26.051s-24.081,12.744-28.21,7.667,1.812-16.739,13.263-26.051v4.522h22.626Z" transform="translate(-97.427 -42.638)" fill="#0fbf61" fill-rule="evenodd"/>
            <path id="Path_282" data-name="Path 282" d="M142.276,28.481c4.076,5.014-1.788,16.531-13.1,25.726S105.4,66.792,101.322,61.781s1.786-16.531,13.1-25.726v4.407h22.532Z" transform="translate(-97.292 -42.535)" fill="#0fbf61" fill-rule="evenodd"/>
            <path id="Path_283" data-name="Path 283" d="M141.882,28.589c4.023,4.949-1.767,16.322-12.932,25.4s-23.48,12.426-27.5,7.477,1.765-16.322,12.932-25.4v4.293h22.438Z" transform="translate(-97.157 -42.432)" fill="#0fbf61" fill-rule="evenodd"/>
            <path id="Path_284" data-name="Path 284" d="M141.487,28.7c3.974,4.886-1.743,16.114-12.765,25.076s-23.178,12.266-27.152,7.379,1.743-16.112,12.765-25.074v4.177h22.346Z" transform="translate(-97.023 -42.329)" fill="#0fbf61" fill-rule="evenodd"/>
            <path id="Path_285" data-name="Path 285" d="M141.093,28.8c3.921,4.824-1.72,15.9-12.6,24.749s-22.877,12.107-26.8,7.285,1.72-15.9,12.6-24.749v4.062h22.252Z" transform="translate(-96.888 -42.226)" fill="#0fbf61" fill-rule="evenodd"/>
            <path id="Path_286" data-name="Path 286" d="M140.7,28.912c3.87,4.759-1.7,15.693-12.432,24.422s-22.577,11.949-26.447,7.189,1.7-15.693,12.434-24.424v3.948h22.158Z" transform="translate(-96.753 -42.122)" fill="#0fbf61" fill-rule="evenodd"/>
            <path id="Path_287" data-name="Path 287" d="M140.3,29.019c3.819,4.7-1.674,15.486-12.268,24.1s-22.275,11.788-26.094,7.094,1.674-15.486,12.268-24.1v3.833h22.066Z" transform="translate(-96.618 -42.02)" fill="#0fbf61" fill-rule="evenodd"/>
            <path id="Path_288" data-name="Path 288" d="M139.911,29.127c3.766,4.632-1.653,15.276-12.1,23.772s-21.974,11.629-25.74,7,1.651-15.276,12.1-23.772v3.717h21.972Z" transform="translate(-96.483 -41.916)" fill="#0fbf61" fill-rule="evenodd"/>
            <path id="Path_289" data-name="Path 289" d="M139.516,29.235c3.715,4.567-1.629,15.064-11.935,23.445s-21.674,11.471-25.389,6.9,1.629-15.064,11.937-23.447v3.6h21.878Z" transform="translate(-96.348 -41.813)" fill="#0fbf61" fill-rule="evenodd"/>
            <path id="Path_290" data-name="Path 290" d="M139.123,29.342c3.664,4.506-1.606,14.857-11.77,23.122s-21.373,11.31-25.037,6.806,1.608-14.857,11.772-23.122v3.488h21.784Z" transform="translate(-96.213 -41.71)" fill="#0fbf61" fill-rule="evenodd"/>
            <path id="Path_291" data-name="Path 291" d="M138.729,29.45c3.611,4.442-1.584,14.647-11.606,22.794s-21.071,11.151-24.682,6.71,1.584-14.647,11.6-22.794v3.372h21.692Z" transform="translate(-96.078 -41.607)" fill="#0fbf61" fill-rule="evenodd"/>
            <path id="Path_292" data-name="Path 292" d="M138.334,29.557c3.56,4.379-1.561,14.44-11.437,22.469s-20.771,10.993-24.332,6.616S104.126,44.2,114,36.171V39.43h21.6Z" transform="translate(-95.944 -41.504)" fill="#0fbf61" fill-rule="evenodd"/>
            <path id="Path_293" data-name="Path 293" d="M137.941,29.665c3.508,4.314-1.539,14.228-11.273,22.144s-20.47,10.832-23.979,6.518,1.539-14.23,11.275-22.144v3.143h21.5Z" transform="translate(-95.809 -41.4)" fill="#0fbf61" fill-rule="evenodd"/>
            <path id="Path_294" data-name="Path 294" d="M137.547,29.773c3.457,4.25-1.518,14.019-11.108,21.817s-20.168,10.674-23.625,6.422,1.516-14.019,11.106-21.817v3.028h21.412Z" transform="translate(-95.674 -41.297)" fill="#0fbf61" fill-rule="evenodd"/>
            <path id="Path_295" data-name="Path 295" d="M137.152,29.88c3.406,4.189-1.492,13.811-10.942,21.492S106.343,61.887,102.938,57.7s1.494-13.811,10.942-21.494V39.12H135.2Z" transform="translate(-95.539 -41.194)" fill="#0fbf61" fill-rule="evenodd"/>
            <path id="Path_296" data-name="Path 296" d="M136.759,29.988c3.353,4.125-1.471,13.6-10.775,21.167s-19.567,10.354-22.922,6.23,1.473-13.6,10.777-21.167v2.8h21.224Z" transform="translate(-95.404 -41.091)" fill="#0fbf61" fill-rule="evenodd"/>
            <path id="Path_297" data-name="Path 297" d="M136.365,30.1c3.3,4.062-1.449,13.394-10.611,20.842s-19.265,10.2-22.567,6.136,1.447-13.394,10.609-20.842v2.683h21.132Z" transform="translate(-95.269 -40.988)" fill="#0fbf61" fill-rule="evenodd"/>
            <path id="Path_298" data-name="Path 298" d="M135.969,30.2c3.251,4-1.426,13.182-10.444,20.515s-18.964,10.037-22.215,6.04,1.426-13.182,10.444-20.517V38.81h21.038Z" transform="translate(-95.134 -40.885)" fill="#0fbf61" fill-rule="evenodd"/>
            <path id="Path_299" data-name="Path 299" d="M135.576,30.311c3.2,3.933-1.4,12.973-10.278,20.19s-18.664,9.877-21.862,5.942,1.4-12.973,10.278-20.19v2.454h20.944Z" transform="translate(-94.999 -40.781)" fill="#0fbf61" fill-rule="evenodd"/>
            <path id="Path_300" data-name="Path 300" d="M135.183,30.418c3.147,3.872-1.381,12.765-10.113,19.865S106.707,60,103.559,56.131s1.381-12.765,10.113-19.865V38.6h20.85Z" transform="translate(-94.864 -40.679)" fill="#0fbf61" fill-rule="evenodd"/>
            <path id="Path_301" data-name="Path 301" d="M134.787,30.526c3.1,3.807-1.357,12.556-9.947,19.538s-18.061,9.559-21.157,5.752,1.359-12.556,9.947-19.54V38.5h20.758Z" transform="translate(-94.73 -40.575)" fill="#0fbf61" fill-rule="evenodd"/>
            <path id="Path_302" data-name="Path 302" d="M134.394,30.633c3.043,3.745-1.336,12.346-9.781,19.214s-17.761,9.4-20.8,5.654,1.334-12.344,9.781-19.212V38.4h20.664Z" transform="translate(-94.595 -40.473)" fill="#0fbf61" fill-rule="evenodd"/>
            <path id="Path_303" data-name="Path 303" d="M134,30.741c2.991,3.68-1.314,12.137-9.616,18.887s-17.46,9.24-20.452,5.56,1.312-12.137,9.616-18.887v1.994H134Z" transform="translate(-94.46 -40.369)" fill="#0fbf61" fill-rule="evenodd"/>
            <path id="Path_304" data-name="Path 304" d="M133.605,30.849c2.942,3.617-1.289,11.927-9.45,18.56s-17.158,9.081-20.1,5.464,1.291-11.927,9.45-18.562v1.88h20.1Z" transform="translate(-94.325 -40.266)" fill="#0fbf61" fill-rule="evenodd"/>
            <path id="Path_305" data-name="Path 305" d="M133.212,30.956c2.889,3.555-1.267,11.719-9.285,18.237s-16.856,8.921-19.745,5.368,1.267-11.719,9.283-18.237v1.765h19.747Z" transform="translate(-94.19 -40.163)" fill="#0fbf61" fill-rule="evenodd"/>
            <path id="Path_306" data-name="Path 306" d="M132.817,31.064c2.838,3.49-1.244,11.508-9.117,17.91s-16.557,8.762-19.395,5.272,1.246-11.508,9.119-17.91v1.649h19.393Z" transform="translate(-94.055 -40.06)" fill="#0fbf61" fill-rule="evenodd"/>
            <path id="Path_307" data-name="Path 307" d="M132.423,31.172c2.787,3.425-1.222,11.3-8.952,17.583s-16.255,8.6-19.042,5.176,1.222-11.3,8.952-17.585v1.535h19.042Z" transform="translate(-93.92 -39.956)" fill="#0fbf61" fill-rule="evenodd"/>
            <path id="Path_308" data-name="Path 308" d="M132.03,31.279c2.734,3.363-1.2,11.091-8.788,17.26s-15.954,8.443-18.688,5.08,1.2-11.091,8.786-17.26v1.42h18.69Z" transform="translate(-93.786 -39.854)" fill="#0fbf61" fill-rule="evenodd"/>
            <path id="Path_309" data-name="Path 309" d="M131.634,31.387c2.683,3.3-1.175,10.881-8.619,16.933S107.361,56.6,104.678,53.3s1.177-10.881,8.621-16.933v1.3h18.335Z" transform="translate(-93.651 -39.75)" fill="#0fbf61" fill-rule="evenodd"/>
            <path id="Path_310" data-name="Path 310" d="M131.241,31.494c2.632,3.237-1.154,10.672-8.455,16.608s-15.352,8.126-17.985,4.89,1.155-10.674,8.457-16.61v1.191h17.983Z" transform="translate(-93.516 -39.647)" fill="#0fbf61" fill-rule="evenodd"/>
            <path id="Path_311" data-name="Path 311" d="M130.847,31.6c2.579,3.173-1.132,10.462-8.29,16.283s-15.051,7.965-17.63,4.792,1.13-10.462,8.288-16.283V37.47h17.632Z" transform="translate(-93.381 -39.544)" fill="#0fbf61" fill-rule="evenodd"/>
            <path id="Path_312" data-name="Path 312" d="M130.452,31.71c2.528,3.108-1.109,10.253-8.122,15.956s-14.751,7.806-17.279,4.7,1.108-10.253,8.124-15.956v.96h17.278Z" transform="translate(-93.246 -39.44)" fill="#0fbf61" fill-rule="evenodd"/>
            <path id="Path_313" data-name="Path 313" d="M130.059,31.817c2.477,3.045-1.087,10.045-7.957,15.63s-14.449,7.648-16.927,4.6S106.262,42,113.134,36.417v.846h16.925Z" transform="translate(-93.111 -39.338)" fill="#0fbf61" fill-rule="evenodd"/>
            <path id="Path_314" data-name="Path 314" d="M129.665,31.925c2.425,2.983-1.063,9.835-7.793,15.305s-14.148,7.487-16.572,4.5,1.063-9.835,7.791-15.305v.731h16.574Z" transform="translate(-92.976 -39.234)" fill="#0fbf61" fill-rule="evenodd"/>
            <path id="Path_315" data-name="Path 315" d="M129.27,32.032c2.374,2.92-1.04,9.626-7.626,14.98s-13.846,7.329-16.22,4.41,1.042-9.626,7.626-14.98v.615h16.22Z" transform="translate(-92.842 -39.132)" fill="#0fbf61" fill-rule="evenodd"/>
            <path id="Path_316" data-name="Path 316" d="M128.877,32.14c2.321,2.855-1.018,9.416-7.46,14.653s-13.547,7.17-15.869,4.314,1.018-9.416,7.462-14.655v.5h15.867Z" transform="translate(-92.707 -39.028)" fill="#0fbf61" fill-rule="evenodd"/>
            <path id="Path_317" data-name="Path 317" d="M128.483,32.248c2.27,2.791-1,9.207-7.3,14.328s-13.245,7.009-15.515,4.217.995-9.207,7.293-14.328v.386h15.517Z" transform="translate(-92.572 -38.925)" fill="#0fbf61" fill-rule="evenodd"/>
            <path id="Path_318" data-name="Path 318" d="M128.088,32.355c2.219,2.728-.973,9-7.129,14s-12.943,6.851-15.162,4.123.973-9,7.129-14v.27h15.162Z" transform="translate(-92.437 -38.822)" fill="#0fbf61" fill-rule="evenodd"/>
            <path id="Path_319" data-name="Path 319" d="M127.694,32.463c2.166,2.665-.95,8.788-6.962,13.676s-12.644,6.692-14.81,4.027.95-8.788,6.962-13.678v.157h14.81Z" transform="translate(-92.302 -38.719)" fill="#0fbf61" fill-rule="evenodd"/>
            <path id="Path_320" data-name="Path 320" d="M127.3,32.57c2.115,2.6-.928,8.58-6.8,13.353s-12.342,6.531-14.457,3.929.928-8.578,6.8-13.351v.041H127.3Z" transform="translate(-92.167 -38.616)" fill="#0fbf61" fill-rule="evenodd"/>
            <path id="Path_321" data-name="Path 321" d="M126.906,33.252c2.064,2.538-.9,8.37-6.631,13.026s-12.041,6.373-14.1,3.835.9-8.37,6.631-13.026S124.842,30.714,126.906,33.252Z" transform="translate(-92.032 -39.087)" fill="#0fbf61" fill-rule="evenodd"/>
            <path id="Path_322" data-name="Path 322" d="M126.512,33.346c2.011,2.474-.883,8.161-6.465,12.7s-11.741,6.214-13.752,3.739.881-8.161,6.465-12.7S124.5,30.87,126.512,33.346Z" transform="translate(-91.897 -38.969)" fill="#0fbf61" fill-rule="evenodd"/>
            <path id="Path_323" data-name="Path 323" d="M126.119,33.438c1.96,2.413-.862,7.951-6.3,12.375s-11.439,6.054-13.4,3.643.86-7.951,6.3-12.375S124.157,31.027,126.119,33.438Z" transform="translate(-91.762 -38.852)" fill="#0fbf61" fill-rule="evenodd"/>
            <path id="Path_324" data-name="Path 324" d="M125.724,33.532c1.91,2.348-.836,7.742-6.134,12.048s-11.138,5.895-13.047,3.547.838-7.742,6.134-12.048S123.814,31.184,125.724,33.532Z" transform="translate(-91.627 -38.734)" fill="#0fbf61" fill-rule="evenodd"/>
            <path id="Path_325" data-name="Path 325" d="M125.33,33.626c1.857,2.284-.815,7.532-5.969,11.721s-10.836,5.736-12.693,3.451.815-7.532,5.967-11.723S123.472,31.341,125.33,33.626Z" transform="translate(-91.493 -38.617)" fill="#0fbf61" fill-rule="evenodd"/>
            <path id="Path_326" data-name="Path 326" d="M124.935,33.718c1.808,2.221-.791,7.325-5.8,11.4s-10.537,5.576-12.342,3.355.791-7.325,5.8-11.4S123.129,31.5,124.935,33.718Z" transform="translate(-91.358 -38.499)" fill="#0fbf61" fill-rule="evenodd"/>
            <path id="Path_327" data-name="Path 327" d="M124.542,33.812c1.755,2.156-.77,7.113-5.636,11.071s-10.235,5.417-11.99,3.259.77-7.115,5.636-11.071S122.787,31.654,124.542,33.812Z" transform="translate(-91.223 -38.382)" fill="#0fbf61" fill-rule="evenodd"/>
            <path id="Path_328" data-name="Path 328" d="M124.148,33.9c1.7,2.1-.748,6.906-5.472,10.746s-9.933,5.258-11.635,3.165.746-6.906,5.47-10.748S122.444,31.811,124.148,33.9Z" transform="translate(-91.088 -38.265)" fill="#0fbf61" fill-rule="evenodd"/>
            <path id="Path_329" data-name="Path 329" d="M123.753,34c1.651,2.031-.723,6.7-5.3,10.421s-9.634,5.1-11.285,3.067.725-6.7,5.305-10.421S122.1,31.968,123.753,34Z" transform="translate(-90.953 -38.147)" fill="#0fbf61" fill-rule="evenodd"/>
            <path id="Path_330" data-name="Path 330" d="M123.36,34.092c1.6,1.966-.7,6.486-5.139,10.094s-9.332,4.939-10.932,2.971.7-6.486,5.141-10.094S121.759,32.124,123.36,34.092Z" transform="translate(-90.818 -38.029)" fill="#0fbf61" fill-rule="evenodd"/>
            <ellipse id="Ellipse_41" data-name="Ellipse 41" cx="10.022" cy="4.442" rx="10.022" ry="4.442" transform="translate(13.928 5.471) rotate(-39.114)" fill="#0fbf61"/>
            <path id="Path_331" data-name="Path 331" d="M122.571,34.278c1.5,1.839-.656,6.067-4.806,9.444s-8.731,4.62-10.227,2.779.656-6.067,4.808-9.444S121.075,32.437,122.571,34.278Z" transform="translate(-90.549 -37.794)" fill="#0fbf61" fill-rule="evenodd"/>
            <path id="Path_332" data-name="Path 332" d="M122.177,34.371c1.445,1.778-.635,5.86-4.642,9.119s-8.429,4.461-9.875,2.685.635-5.86,4.644-9.119S120.732,32.594,122.177,34.371Z" transform="translate(-90.414 -37.677)" fill="#0fbf61" fill-rule="evenodd"/>
            <path id="Path_333" data-name="Path 333" d="M121.784,34.465c1.392,1.714-.611,5.65-4.477,8.792s-8.128,4.3-9.52,2.589.611-5.65,4.475-8.793S120.39,32.751,121.784,34.465Z" transform="translate(-90.279 -37.559)" fill="#0fbf61" fill-rule="evenodd"/>
            <path id="Path_334" data-name="Path 334" d="M121.389,34.559c1.342,1.649-.588,5.441-4.311,8.466s-7.826,4.142-9.168,2.491.589-5.441,4.311-8.466S120.047,32.908,121.389,34.559Z" transform="translate(-90.144 -37.442)" fill="#0fbf61" fill-rule="evenodd"/>
            <path id="Path_335" data-name="Path 335" d="M121,34.651c1.291,1.586-.566,5.231-4.144,8.141s-7.526,3.983-8.817,2.4.566-5.231,4.146-8.141S119.7,33.064,121,34.651Z" transform="translate(-90.009 -37.324)" fill="#0fbf61" fill-rule="evenodd"/>
            <path id="Path_336" data-name="Path 336" d="M120.6,34.745c1.238,1.522-.544,5.021-3.98,7.814s-7.225,3.825-8.462,2.3.542-5.021,3.978-7.816S119.362,33.221,120.6,34.745Z" transform="translate(-89.874 -37.207)" fill="#0fbf61" fill-rule="evenodd"/>
            <path id="Path_337" data-name="Path 337" d="M120.207,34.837c1.187,1.461-.519,4.814-3.813,7.491s-6.923,3.664-8.11,2.2.521-4.812,3.813-7.489S119.02,33.378,120.207,34.837Z" transform="translate(-89.739 -37.09)" fill="#0fbf61" fill-rule="evenodd"/>
            <path id="Path_338" data-name="Path 338" d="M119.813,34.931c1.134,1.4-.5,4.6-3.647,7.164s-6.624,3.506-7.757,2.109.5-4.6,3.647-7.164S118.677,33.535,119.813,34.931Z" transform="translate(-89.604 -36.972)" fill="#0fbf61" fill-rule="evenodd"/>
            <path id="Path_339" data-name="Path 339" d="M119.419,35.025c1.083,1.332-.476,4.393-3.482,6.837s-6.322,3.347-7.4,2.013.476-4.393,3.482-6.839S118.334,33.691,119.419,35.025Z" transform="translate(-89.469 -36.854)" fill="#0fbf61" fill-rule="evenodd"/>
            <path id="Path_340" data-name="Path 340" d="M119.025,35.117c1.032,1.269-.452,4.185-3.316,6.514s-6.02,3.186-7.052,1.917.452-4.185,3.316-6.514S117.993,33.848,119.025,35.117Z" transform="translate(-89.335 -36.737)" fill="#0fbf61" fill-rule="evenodd"/>
            <path id="Path_341" data-name="Path 341" d="M118.631,35.211c.979,1.2-.431,3.976-3.149,6.187s-5.721,3.028-6.7,1.821.429-3.976,3.149-6.187S117.65,34,118.631,35.211Z" transform="translate(-89.2 -36.619)" fill="#0fbf61" fill-rule="evenodd"/>
            <path id="Path_342" data-name="Path 342" d="M118.237,35.3c.928,1.144-.407,3.768-2.985,5.862s-5.419,2.869-6.347,1.725.407-3.766,2.985-5.862S117.307,34.161,118.237,35.3Z" transform="translate(-89.065 -36.502)" fill="#0fbf61" fill-rule="evenodd"/>
            <path id="Path_343" data-name="Path 343" d="M117.842,35.4c.877,1.079-.384,3.557-2.818,5.537s-5.117,2.709-5.995,1.629.386-3.559,2.818-5.537S116.965,34.318,117.842,35.4Z" transform="translate(-88.93 -36.385)" fill="#0fbf61" fill-rule="evenodd"/>
            <path id="Path_344" data-name="Path 344" d="M117.449,35.491c.824,1.014-.362,3.347-2.654,5.209s-4.816,2.55-5.64,1.533.362-3.347,2.652-5.209S116.622,34.475,117.449,35.491Z" transform="translate(-88.795 -36.267)" fill="#0fbf61" fill-rule="evenodd"/>
            <path id="Path_345" data-name="Path 345" d="M117.053,35.583c.776.952-.339,3.139-2.485,4.884s-4.516,2.391-5.29,1.439.339-3.139,2.487-4.886S116.28,34.631,117.053,35.583Z" transform="translate(-88.66 -36.15)" fill="#0fbf61" fill-rule="evenodd"/>
            <path id="Path_346" data-name="Path 346" d="M116.66,35.677c.723.889-.317,2.93-2.321,4.559s-4.215,2.231-4.937,1.342.317-2.93,2.321-4.559S115.937,34.788,116.66,35.677Z" transform="translate(-88.525 -36.032)" fill="#0fbf61" fill-rule="evenodd"/>
            <path id="Path_347" data-name="Path 347" d="M116.267,35.771c.67.825-.294,2.72-2.156,4.232s-3.913,2.072-4.583,1.246.294-2.72,2.154-4.232S115.595,34.945,116.267,35.771Z" transform="translate(-88.39 -35.914)" fill="#0fbf61" fill-rule="evenodd"/>
            <path id="Path_348" data-name="Path 348" d="M115.871,35.863c.621.762-.27,2.511-1.988,3.907s-3.613,1.913-4.232,1.152.272-2.511,1.99-3.909S115.252,35.1,115.871,35.863Z" transform="translate(-88.256 -35.797)" fill="#0fbf61" fill-rule="evenodd"/>
            <path id="Path_349" data-name="Path 349" d="M115.478,35.957c.568.7-.249,2.3-1.823,3.582s-3.312,1.753-3.88,1.054.249-2.3,1.825-3.582S114.91,35.258,115.478,35.957Z" transform="translate(-88.121 -35.68)" fill="#0fbf61" fill-rule="evenodd"/>
            <path id="Path_350" data-name="Path 350" d="M115.085,36.05c.515.635-.227,2.094-1.659,3.257s-3.01,1.594-3.525.96.225-2.094,1.657-3.257S114.568,35.415,115.085,36.05Z" transform="translate(-87.986 -35.562)" fill="#0fbf61" fill-rule="evenodd"/>
            <path id="Path_351" data-name="Path 351" d="M114.689,36.143c.464.572-.2,1.884-1.49,2.93s-2.71,1.436-3.175.864.2-1.884,1.492-2.932S114.225,35.571,114.689,36.143Z" transform="translate(-87.851 -35.445)" fill="#0fbf61" fill-rule="evenodd"/>
            <path id="Path_352" data-name="Path 352" d="M114.3,36.237c.413.507-.18,1.673-1.326,2.6s-2.409,1.275-2.822.766.182-1.673,1.328-2.6S113.883,35.728,114.3,36.237Z" transform="translate(-87.716 -35.327)" fill="#0fbf61" fill-rule="evenodd"/>
            <path id="Path_353" data-name="Path 353" d="M113.9,36.329c.36.445-.159,1.465-1.161,2.28s-2.107,1.116-2.468.672.159-1.465,1.159-2.28S113.54,35.885,113.9,36.329Z" transform="translate(-87.581 -35.21)" fill="#0fbf61" fill-rule="evenodd"/>
            <path id="Path_354" data-name="Path 354" d="M113.507,36.423c.309.38-.135,1.255-.995,1.953s-1.806.958-2.115.576.135-1.255.995-1.955S113.2,36.042,113.507,36.423Z" transform="translate(-87.447 -35.092)" fill="#0fbf61" fill-rule="evenodd"/>
            <path id="Path_355" data-name="Path 355" d="M113.114,36.516c.258.317-.114,1.048-.828,1.629s-1.506.8-1.765.48.114-1.048.83-1.629S112.855,36.2,113.114,36.516Z" transform="translate(-87.312 -34.975)" fill="#0fbf61" fill-rule="evenodd"/>
            <path id="Path_356" data-name="Path 356" d="M112.72,36.61c.206.255-.092.836-.664,1.3s-1.2.638-1.41.384.09-.836.662-1.3S112.513,36.355,112.72,36.61Z" transform="translate(-87.177 -34.857)" fill="#0fbf61" fill-rule="evenodd"/>
            <path id="Path_357" data-name="Path 357" d="M112.325,36.7c.155.19-.067.627-.5.975s-.9.478-1.058.288.069-.627.5-.977S112.17,36.512,112.325,36.7Z" transform="translate(-87.042 -34.74)" fill="#0fbf61" fill-rule="evenodd"/>
            <path id="Path_358" data-name="Path 358" d="M111.931,36.8c.1.127-.045.419-.331.652s-.6.317-.705.192.045-.419.331-.652S111.827,36.668,111.931,36.8Z" transform="translate(-86.907 -34.622)" fill="#0fbf61" fill-rule="evenodd"/>
            <path id="Path_359" data-name="Path 359" d="M111.538,36.89c.051.063-.023.21-.166.325s-.3.159-.353.1.022-.21.166-.325S111.485,36.825,111.538,36.89Z" transform="translate(-86.772 -34.505)" fill="#0fbf61" fill-rule="evenodd"/>
          </g>
        </g>
      </g>
    </g>
    <path id="Path_361" data-name="Path 361" d="M73.091,53.419,57.408,62.352a1.392,1.392,0,0,0,.027,2.434l.2.11a1.392,1.392,0,0,1,.255,2.272L31.644,90.1a1.393,1.393,0,0,0-.343,1.645l.754,1.588a1.391,1.391,0,0,0,2.215.413L59.607,69.651a1.39,1.39,0,0,1,2.305.66h0a1.392,1.392,0,0,0,2.513.415L73.5,56.878a1.394,1.394,0,0,0,.184-1.1Z" transform="translate(19.367 50.156)" fill="#5c175b" fill-rule="evenodd" opacity="0.3" style="mix-blend-mode: multiply;isolation: isolate"/>
  </g>
</svg>
