<svg xmlns="http://www.w3.org/2000/svg" width="15" height="130" viewBox="0 0 15 130">
  <g id="Group_288" data-name="Group 288" transform="translate(-11270 6)">
    <g id="Group_287" data-name="Group 287" transform="translate(-54 -5)">
      <g id="Group_9" data-name="Group 9" transform="translate(10735.375 1603.625) rotate(-90)">
        <g id="Group_4" data-name="Group 4" transform="translate(-84.125 -2.625)">
          <rect id="Rectangle_1" data-name="Rectangle 1" width="15" height="130" transform="translate(1688.75 591.25) rotate(90)" fill="#0fbf61"/>
        </g>
        <text id="غيّر_للأسهل" data-name="غيّر للأسهل" transform="translate(1485.625 599.625)" fill="#151d41" font-size="10" font-family="EthnocentricRg-Italic, Ethnocentric" font-style="italic"><tspan x="0" y="0">Karim is op</tspan></text>
      </g>
      <g id="karim_b" data-name="karim b" transform="matrix(-0.174, -0.985, 0.985, -0.174, 11326.913, 31.114)">
        <line id="Line_32" data-name="Line 32" transform="translate(10.25 3.741)"/>
        <line id="Line_33" data-name="Line 33" transform="translate(10.686 4.944)"/>
        <g id="Group_258" data-name="Group 258" transform="matrix(0.966, 0.259, -0.259, 0.966, 6.334, 0.318)">
          <path id="Path_117" data-name="Path 117" d="M7.067,8.5a.239.239,0,0,1,0,.077c-.1,1.553.674,3.934,2.458,1.869H9.7a.973.973,0,0,1,.469.384.188.188,0,0,1,0,.23c-1.28,1.587-3.243-.145-3.414-2.151a.563.563,0,0,1,0-.119,3.5,3.5,0,0,0,.333-.3Z" transform="translate(-2.008 -2.797)" fill="#151d41"/>
          <path id="Path_118" data-name="Path 118" d="M7.463,3.339V3.6a1.553,1.553,0,0,1-.1.3,3.627,3.627,0,0,1-.23.444,1.92,1.92,0,0,1-.3.384,3.106,3.106,0,0,1-.41.341,2.466,2.466,0,0,1-.452.222V4.952a1.707,1.707,0,0,0,.614-.418,2.347,2.347,0,0,0,.239-.316A1.707,1.707,0,0,0,7,3.825a.853.853,0,0,0,.085-.23,1.05,1.05,0,0,0,.043-.213.7.7,0,0,0-.051-.367.35.35,0,0,0-.367-.188A.853.853,0,0,0,6.5,2.9a.606.606,0,0,0-.119.085.734.734,0,0,0-.119.111c-.572.538-.572,2.321-.64,3.03a4.009,4.009,0,0,1-.119.76c1.9-.3,4.182-3.038,3.849-4.907,0,0,0-.068.1-.094a1.272,1.272,0,0,1,.29-.051,1.775,1.775,0,0,1,.358,0,.853.853,0,0,1,.316.145c.085.068.307.324.188.282-1.169-.393-.486,1.485-.7,1.835a6.827,6.827,0,0,1-4.5,3.234,5.061,5.061,0,0,1-1.878,2.893C.943,11.984.345,8.451,2.539,7.837a1.314,1.314,0,0,1,.606,0c.06,0,.085.06.085.145a.5.5,0,0,1-.06.247.538.538,0,0,1-.154.2.137.137,0,0,1-.188,0c-1.707-1.4-2.091,4.455.29.964a4.8,4.8,0,0,0,.512-1.05,11.282,11.282,0,0,0,.623-2.3c.632-4.446,3.337-4.267,3.209-2.705Z" transform="translate(-1.193 -1.819)" fill="#151d41"/>
          <path id="Path_119" data-name="Path 119" d="M15.127,7.452a3.78,3.78,0,0,0-.333-.29c-.58,1.348-1.272,2.56-1.809,2.219s0-1.707.307-2.117.666-.58.981-.486A.424.424,0,0,1,14.35,6.6c.119-.307.247-.632.367-.956-.512.623-1.092.99-1.664.649A1.878,1.878,0,0,1,12.3,5.173v.41c-.137,1-.478,2.381-1.6,2.663H10.45l.239-.068c1.28-.469,1.263-2.338,1.237-3.456,0-.256-.077-.691.179-.853.555-.29.777,1.4,1.263,1.792s1.707-1.707,1.878-2.031.376-.853.563-1.186a.316.316,0,0,1,.589.2c0,.085-.418,1.323-.452,1.434-.111.333-.546,1.707-1.084,2.978a3.209,3.209,0,0,1,.307.358Zm-.853-.589c-.376-.043-.691.222-.922.9a2.893,2.893,0,0,0-.128,1.144l.154-.171A13.407,13.407,0,0,0,14.273,6.863ZM13.258,8.979Z" transform="translate(-2.55 -1.887)" fill="#151d41" fill-rule="evenodd"/>
          <circle id="Ellipse_34" data-name="Ellipse 34" cx="0.171" cy="0.171" r="0.171" transform="translate(9.266 0.991)" fill="#151d41"/>
        </g>
      </g>
    </g>
  </g>
</svg>
