<svg xmlns="http://www.w3.org/2000/svg" xmlns:xlink="http://www.w3.org/1999/xlink" width="1320" height="338" viewBox="0 0 1320 338">
  <defs>
    <filter id="Ellipse_30" x="0" y="0" width="336" height="336" filterUnits="userSpaceOnUse">
      <feOffset dy="15" input="SourceAlpha"/>
      <feGaussianBlur stdDeviation="10" result="blur"/>
      <feFlood flood-color="#151d41" flood-opacity="0.059"/>
      <feComposite operator="in" in2="blur"/>
      <feComposite in="SourceGraphic"/>
    </filter>
    <filter id="Ellipse_33" x="984" y="2" width="336" height="336" filterUnits="userSpaceOnUse">
      <feOffset dy="15" input="SourceAlpha"/>
      <feGaussianBlur stdDeviation="10" result="blur-2"/>
      <feFlood flood-color="#151d41" flood-opacity="0.059"/>
      <feComposite operator="in" in2="blur-2"/>
      <feComposite in="SourceGraphic"/>
    </filter>
    <filter id="Ellipse_31" x="328" y="0" width="336" height="336" filterUnits="userSpaceOnUse">
      <feOffset dy="15" input="SourceAlpha"/>
      <feGaussianBlur stdDeviation="10" result="blur-3"/>
      <feFlood flood-color="#151d41" flood-opacity="0.059"/>
      <feComposite operator="in" in2="blur-3"/>
      <feComposite in="SourceGraphic"/>
    </filter>
    <filter id="Ellipse_32" x="656" y="0" width="338" height="336" filterUnits="userSpaceOnUse">
      <feOffset dy="15" input="SourceAlpha"/>
      <feGaussianBlur stdDeviation="10" result="blur-4"/>
      <feFlood flood-color="#151d41" flood-opacity="0.059"/>
      <feComposite operator="in" in2="blur-4"/>
      <feComposite in="SourceGraphic"/>
    </filter>
  </defs>
  <g id="Down_" data-name="Down%" transform="translate(-165 -2201.92)">
    <g transform="matrix(1, 0, 0, 1, 165, 2201.92)" filter="url(#Ellipse_30)">
      <circle id="Ellipse_30-2" data-name="Ellipse 30" cx="138" cy="138" r="138" transform="translate(30 15)" fill="#fff"/>
    </g>
    <g transform="matrix(1, 0, 0, 1, 165, 2201.92)" filter="url(#Ellipse_33)">
      <circle id="Ellipse_33-2" data-name="Ellipse 33" cx="138" cy="138" r="138" transform="translate(1014 17)" fill="#fff"/>
    </g>
    <g id="Group_81" data-name="Group 81" transform="translate(227.947 2254.495)">
      <g id="Path_65" data-name="Path 65" transform="translate(0 0)" fill="#fff">
        <path d="M101.337,0A101.334,101.334,0,1,1,25.7,33.9,101.337,101.337,0,0,1,101.337,0Z" stroke="none"/>
        <path d="M 101.3365097045898 1.999984741210938 C 94.08950805664062 1.999984741210938 86.85878753662109 2.783737182617188 79.84520721435547 4.329483032226562 C 73.02314758300781 5.8330078125 66.34309387207031 8.070648193359375 59.99057006835938 10.98023986816406 C 53.75503540039062 13.83624267578125 47.79312133789062 17.35823059082031 42.27033996582031 21.44837951660156 C 36.79220581054688 25.50550842285156 31.71847534179688 30.141845703125 27.1900634765625 35.22862243652344 C 23.26211547851562 39.640869140625 19.70928955078125 44.42042541503906 16.63029479980469 49.43453979492188 C 13.51911926269531 54.50103759765625 10.85353088378906 59.86956787109375 8.7076416015625 65.39096069335938 C 4.256790161132812 76.84295654296875 2.000015258789062 88.936767578125 2.000015258789062 101.3364868164062 C 2.000015258789062 108.0776519775391 2.679031372070312 114.8139877319336 4.018203735351562 121.3583755493164 C 5.323150634765625 127.7354278564453 7.270294189453125 134.0080871582031 9.8055419921875 140.0021209716797 C 12.29498291015625 145.8877868652344 15.37628173828125 151.5646514892578 18.96392822265625 156.8750610351562 C 22.51783752441406 162.1355438232422 26.59931945800781 167.0823211669922 31.09498596191406 171.5779876708984 C 35.59068298339844 176.0736541748047 40.53746032714844 180.1551208496094 45.79792785644531 183.7090454101562 C 51.10832214355469 187.2966766357422 56.78520202636719 190.3780212402344 62.67086791992188 192.867431640625 C 68.66490173339844 195.4026794433594 74.93756866455078 197.3498229980469 81.31462097167969 198.6547698974609 C 87.8590087890625 199.9939270019531 94.59534454345703 200.6729583740234 101.3365097045898 200.6729583740234 C 108.0776748657227 200.6729583740234 114.8140106201172 199.9939270019531 121.3583984375 198.6547698974609 C 127.7354507446289 197.3498229980469 134.0081176757812 195.4026794433594 140.0021514892578 192.867431640625 C 145.8878173828125 190.3780212402344 151.564697265625 187.2966766357422 156.8750915527344 183.7090454101562 C 162.1355590820312 180.1551208496094 167.0823364257812 176.0736541748047 171.5780334472656 171.5779876708984 C 176.0736999511719 167.0823211669922 180.1551818847656 162.1355438232422 183.7090911865234 156.8750610351562 C 187.2967376708984 151.5646514892578 190.3780364990234 145.8877868652344 192.8674774169922 140.0021209716797 C 195.4027252197266 134.0080871582031 197.3498687744141 127.7354278564453 198.6548156738281 121.3583755493164 C 199.9939880371094 114.8139877319336 200.6730041503906 108.0776519775391 200.6730041503906 101.3364868164062 C 200.6730041503906 94.59532165527344 199.9939880371094 87.85898590087891 198.6548156738281 81.31459808349609 C 197.3498687744141 74.93756866455078 195.4027252197266 68.66490173339844 192.8674774169922 62.67085266113281 C 190.3780364990234 56.78520202636719 187.2967376708984 51.10832214355469 183.7090911865234 45.79789733886719 C 180.1551818847656 40.53742980957031 176.0736999511719 35.59065246582031 171.5780334472656 31.09498596191406 C 167.0823364257812 26.59928894042969 162.1355590820312 22.517822265625 156.8750915527344 18.96392822265625 C 151.564697265625 15.37629699707031 145.8878173828125 12.29495239257812 140.0021514892578 9.805511474609375 C 134.0081176757812 7.270263671875 127.7354507446289 5.3231201171875 121.3583984375 4.0181884765625 C 114.8140106201172 2.67901611328125 108.0776748657227 1.999984741210938 101.3365097045898 1.999984741210938 M 101.3365097045898 -1.52587890625e-05 C 157.3031158447266 -1.52587890625e-05 202.6730041503906 45.36990356445312 202.6730041503906 101.3364868164062 C 202.6730041503906 157.3031005859375 157.3031158447266 202.6729583740234 101.3365097045898 202.6729583740234 C 45.36990356445312 202.6729583740234 1.52587890625e-05 157.3031005859375 1.52587890625e-05 101.3364868164062 C 1.52587890625e-05 75.48007202148438 9.683837890625 51.88540649414062 25.69625854492188 33.89875793457031 C 44.183349609375 13.13215637207031 71.22634887695312 -1.52587890625e-05 101.3365097045898 -1.52587890625e-05 Z" stroke="none" fill="rgba(15,191,97,0.2)"/>
      </g>
    </g>
    <g id="Group_278" data-name="Group 278" transform="translate(227.947 2254.495)">
      <g id="Path_65-2" data-name="Path 65" transform="translate(0 0)" fill="#fff">
        <path d="M 101.33642578125 198.1729888916016 C 94.76325225830078 198.1729888916016 88.19554138183594 197.5110473632812 81.81575012207031 196.2055511474609 C 75.60036468505859 194.9336853027344 69.48674774169922 193.0359344482422 63.64469146728516 190.5649566650391 C 57.90771865844727 188.1383972167969 52.37404251098633 185.1347808837891 47.19739532470703 181.6375122070312 C 42.06877899169922 178.1726684570312 37.24589538574219 174.1934051513672 32.86275100708008 169.8102569580078 C 28.47957229614258 165.4270782470703 24.50030899047852 160.6041870117188 21.03548431396484 155.4755706787109 C 17.5382194519043 150.2989349365234 14.53460216522217 144.7652587890625 12.1080436706543 139.0282440185547 C 9.637072563171387 133.1861877441406 7.73930835723877 127.0725784301758 6.467455387115479 120.8571929931641 C 5.1619553565979 114.4773712158203 4.500013828277588 107.9096603393555 4.500013828277588 101.3364868164062 C 4.500013828277588 94.76331329345703 5.1619553565979 88.19560241699219 6.467455387115479 81.81578063964844 C 7.73930835723877 75.60042572021484 9.637072563171387 69.48677825927734 12.1080436706543 63.64475250244141 C 14.53460216522217 57.90775299072266 17.5382194519043 52.37407684326172 21.03548431396484 47.19742965698242 C 24.50030899047852 42.06880950927734 28.47957229614258 37.24592971801758 32.86275100708008 32.86275100708008 C 37.24589538574219 28.47960472106934 42.06877899169922 24.50033950805664 47.19739532470703 21.03548622131348 C 52.37404251098633 17.53822135925293 57.90771865844727 14.5346040725708 63.64469146728516 12.10804557800293 C 69.48674774169922 9.637075424194336 75.60036468505859 7.739310264587402 81.81575012207031 6.467457294464111 C 88.19554138183594 5.161957263946533 94.76325225830078 4.500016212463379 101.33642578125 4.500016212463379 C 108.4027786254883 4.500016212463379 115.4524536132812 5.26407527923584 122.2896575927734 6.770927906036377 C 128.9388427734375 8.236369132995605 135.4496917724609 10.41731071472168 141.6412811279297 13.25319290161133 C 147.7194213867188 16.0371036529541 153.5310211181641 19.47031021118164 158.9146575927734 23.45742797851562 C 164.2550506591797 27.41251564025879 169.2011260986328 31.93222236633301 173.6155395507812 36.89092636108398 C 177.44580078125 41.19345855712891 180.9100952148438 45.8538703918457 183.9121856689453 50.74275207519531 C 186.9450073242188 55.68169403076172 189.5433654785156 60.91475296020508 191.6350402832031 66.29660797119141 C 195.9732208251953 77.45869445800781 198.1728668212891 89.24781036376953 198.1728668212891 101.3364868164062 C 198.1728668212891 107.803108215332 197.5321960449219 114.2686614990234 196.2686309814453 120.5534896850586 C 195.0383148193359 126.6730728149414 193.2027435302734 132.6969604492188 190.81298828125 138.4578704833984 C 188.4678955078125 144.1110687255859 185.5656280517578 149.5687255859375 182.1868438720703 154.6791687011719 C 178.8422546386719 159.7378997802734 175.0020751953125 164.5001678466797 170.7730102539062 168.8337249755859 C 166.3433380126953 173.3729248046875 161.4623718261719 177.4931640625 156.2656097412109 181.0800170898438 C 151.0246276855469 184.6973724365234 145.4162750244141 187.8038177490234 139.5963745117188 190.3130187988281 C 133.6740417480469 192.8663940429688 127.471305847168 194.8273468017578 121.1603927612305 196.1413726806641 C 114.6858673095703 197.4894561767578 108.0161285400391 198.1729888916016 101.33642578125 198.1729888916016 Z" stroke="none"/>
        <path d="M 101.33642578125 8.999984741210938 C 50.42196655273438 8.999984741210938 9 50.42195129394531 9 101.3364868164062 C 9 152.2510223388672 50.42196655273438 193.6729888916016 101.33642578125 193.6729888916016 C 126.4273529052734 193.6729888916016 149.9432830810547 183.7354125976562 167.5524291992188 165.6908111572266 C 184.3964233398438 148.4306335449219 193.6728515625 125.5758438110352 193.6728515625 101.3364868164062 C 193.6728515625 78.67120361328125 185.3560333251953 56.84663391113281 170.25439453125 39.88308715820312 C 152.7821807861328 20.25645446777344 127.6625366210938 8.999984741210938 101.33642578125 8.999984741210938 M 101.33642578125 -1.52587890625e-05 C 131.4465637207031 -1.52587890625e-05 158.4895324707031 13.13217163085938 176.9766082763672 33.89877319335938 C 192.9890289306641 51.88542175292969 202.6728515625 75.48005676269531 202.6728515625 101.3364868164062 C 202.6728515625 128.8720550537109 191.6904296875 153.8425598144531 173.9935607910156 171.9766235351562 C 155.4638214111328 190.9646301269531 129.7674255371094 202.6729888916016 101.33642578125 202.6729888916016 C 45.36985778808594 202.6729888916016 0 157.3031005859375 0 101.3364868164062 C 0 45.36991882324219 45.36985778808594 -1.52587890625e-05 101.33642578125 -1.52587890625e-05 Z" stroke="none" fill="#0fbf61"/>
      </g>
    </g>
    <g id="Group_210" data-name="Group 210" transform="translate(1212.234 2253.495)">
      <g id="Path_65-3" data-name="Path 65" transform="translate(0 0)" fill="#fff">
        <path d="M 101.3365097045898 198.1729888916016 C 94.76333618164062 198.1729888916016 88.19562530517578 197.5110473632812 81.81580352783203 196.2055511474609 C 75.60041809082031 194.9336853027344 69.48680114746094 193.0359344482422 63.64474487304688 190.5649566650391 C 57.90774536132812 188.1383972167969 52.37406921386719 185.1347808837891 47.19742202758789 181.6375122070312 C 42.06880569458008 178.1726684570312 37.24592208862305 174.1934051513672 32.86274337768555 169.8102569580078 C 28.4795970916748 165.4270782470703 24.50033378601074 160.6041870117188 21.03548049926758 155.4755706787109 C 17.53821563720703 150.2989349365234 14.5345983505249 144.7652587890625 12.10803890228271 139.0282440185547 C 9.637068748474121 133.1861877441406 7.739303588867188 127.0725784301758 6.467451095581055 120.8571929931641 C 5.161951065063477 114.4773712158203 4.500009536743164 107.9096603393555 4.500009536743164 101.3364868164062 C 4.500009536743164 89.24777984619141 6.699656963348389 77.45869445800781 11.03783321380615 66.29660797119141 C 13.12950992584229 60.91475296020508 15.72786235809326 55.68169403076172 18.76068687438965 50.74275207519531 C 21.76280403137207 45.8538703918457 25.22709846496582 41.19345855712891 29.05736351013184 36.89095687866211 C 33.47177505493164 31.93222236633301 38.41786193847656 27.41251564025879 43.75824356079102 23.45742797851562 C 49.14189147949219 19.47031021118164 54.9534797668457 16.0371036529541 61.0316276550293 13.25319290161133 C 67.22324371337891 10.41731071472168 73.73406982421875 8.236369132995605 80.38327789306641 6.770927906036377 C 87.22045135498047 5.26407527923584 94.27015686035156 4.500016212463379 101.3365097045898 4.500016212463379 C 107.9096832275391 4.500016212463379 114.4773941040039 5.161957263946533 120.8572158813477 6.467457294464111 C 127.0726013183594 7.739310264587402 133.1862182617188 9.637075424194336 139.0282745361328 12.10804557800293 C 144.7652740478516 14.5346040725708 150.2989501953125 17.53822135925293 155.4756011962891 21.03548622131348 C 160.6042175292969 24.50033950805664 165.4270935058594 28.47960472106934 169.8102722167969 32.86275100708008 C 174.1934204101562 37.24592971801758 178.1726837158203 42.06880950927734 181.6375427246094 47.19742965698242 C 185.1348114013672 52.37407684326172 188.138427734375 57.90775299072266 190.5649871826172 63.64475250244141 C 193.0359497070312 69.48677825927734 194.9337158203125 75.60042572021484 196.20556640625 81.81578063964844 C 197.5110626220703 88.19560241699219 198.1730041503906 94.76331329345703 198.1730041503906 101.3364868164062 C 198.1730041503906 107.9096603393555 197.5110626220703 114.4773712158203 196.20556640625 120.8571929931641 C 194.9337158203125 127.0725784301758 193.0359497070312 133.1861877441406 190.5649871826172 139.0282440185547 C 188.138427734375 144.7652587890625 185.1348114013672 150.2989349365234 181.6375427246094 155.4755706787109 C 178.1726837158203 160.6041870117188 174.1934204101562 165.4270782470703 169.8102722167969 169.8102569580078 C 165.4270935058594 174.1934051513672 160.6042175292969 178.1726684570312 155.4756011962891 181.6375122070312 C 150.2989501953125 185.1347808837891 144.7652740478516 188.1383972167969 139.0282745361328 190.5649566650391 C 133.1862182617188 193.0359344482422 127.0726013183594 194.9336853027344 120.8572158813477 196.2055511474609 C 114.4773941040039 197.5110473632812 107.9096832275391 198.1729888916016 101.3365097045898 198.1729888916016 Z" stroke="none"/>
        <path d="M 101.3365097045898 8.999984741210938 C 75.01036834716797 8.999984741210938 49.89068603515625 20.25645446777344 32.41844177246094 39.88313293457031 C 17.31683349609375 56.84663391113281 9.000015258789062 78.67120361328125 9.000015258789062 101.3364868164062 C 9.000015258789062 152.2510223388672 50.42196655273438 193.6729888916016 101.3365097045898 193.6729888916016 C 152.2510375976562 193.6729888916016 193.6730041503906 152.2510223388672 193.6730041503906 101.3364868164062 C 193.6730041503906 50.42195129394531 152.2510375976562 8.999984741210938 101.3365097045898 8.999984741210938 M 101.3365097045898 -1.52587890625e-05 C 157.3031158447266 -1.52587890625e-05 202.6730041503906 45.36991882324219 202.6730041503906 101.3364868164062 C 202.6730041503906 157.3031005859375 157.3031158447266 202.6729888916016 101.3365097045898 202.6729888916016 C 45.36990356445312 202.6729888916016 1.52587890625e-05 157.3031005859375 1.52587890625e-05 101.3364868164062 C 1.52587890625e-05 75.48005676269531 9.683837890625 51.88542175292969 25.69625854492188 33.89877319335938 C 44.18333435058594 13.13217163085938 71.22633361816406 -1.52587890625e-05 101.3365097045898 -1.52587890625e-05 Z" stroke="none" fill="#0fbf61"/>
      </g>
    </g>
    <text id="_100_" data-name="100%" transform="translate(328 2361.92)" fill="#151d41" font-size="54" font-family="SegoeUIBlack, Segoe UI"><tspan x="-69.649" y="0">100%</tspan></text>
    <text id="_100_2" data-name="100%" transform="translate(1312 2361.92)" fill="#151d41" font-size="54" font-family="SegoeUIBlack, Segoe UI"><tspan x="-69.649" y="0">100%</tspan></text>
    <text id="Front-End_" data-name="Front-End " transform="translate(276 2399.92)" fill="#151d41" font-size="15" font-family="Montserrat-Regular, Montserrat"><tspan x="0" y="0">FRONT-END </tspan></text>
    <text id="Seo_practis" data-name="Seo + practis" transform="translate(1261 2399.92)" fill="#151d41" font-size="15" font-family="Montserrat-Regular, Montserrat"><tspan x="0" y="0">SEO + PRACTIS</tspan></text>
    <g id="Group_231" data-name="Group 231" transform="translate(522.935 2216.92)">
      <g transform="matrix(1, 0, 0, 1, -357.93, -15)" filter="url(#Ellipse_31)">
        <circle id="Ellipse_31-2" data-name="Ellipse 31" cx="138" cy="138" r="138" transform="translate(358 15)" fill="#fff"/>
      </g>
      <g id="Subtraction_7" data-name="Subtraction 7" transform="translate(30.181 32.21)" fill="#fff">
        <path d="M 104.6904754638672 207.4787902832031 C 93.19697570800781 207.4787902832031 81.92936706542969 205.5665740966797 71.20065307617188 201.7952575683594 C 60.83172607421875 198.1505126953125 51.17583084106445 192.8504333496094 42.50111770629883 186.0422668457031 C 33.90854644775391 179.298583984375 26.51683235168457 171.2648315429688 20.53133201599121 162.1642303466797 C 16.25591850280762 155.6636810302734 12.78061580657959 148.7407684326172 10.14869976043701 141.4934692382812 L 104.6904754638672 141.4934692382812 L 112.1904754638672 141.4934692382812 L 112.1904754638672 133.9934692382812 L 112.1904754638672 7.775190353393555 C 116.4933471679688 8.091294288635254 120.7654647827148 8.678803443908691 124.9591903686523 9.532938957214355 C 131.41015625 10.84675979614258 137.7553253173828 12.8071174621582 143.8185119628906 15.35950946807861 C 149.7726593017578 17.86604499816895 155.5158996582031 20.96872329711914 160.8886871337891 24.58133125305176 C 166.2115478515625 28.16043853759766 171.2170867919922 32.27093887329102 175.7662200927734 36.79868698120117 C 180.3148651123047 41.32586669921875 184.4440765380859 46.30679702758789 188.0391235351562 51.60311889648438 C 191.6669769287109 56.94776153564453 194.7825775146484 62.66057968139648 197.2993621826172 68.58290100097656 C 199.8616485595703 74.61236572265625 201.8296203613281 80.92208099365234 203.1485137939453 87.3367919921875 C 204.50244140625 93.92218780517578 205.1889343261719 100.7024383544922 205.1889343261719 107.4890823364258 C 205.1889343261719 114.2757568359375 204.50244140625 121.0560836791992 203.1484680175781 127.6417236328125 C 201.8296203613281 134.0563659667969 199.8616943359375 140.3661193847656 197.2993621826172 146.3956909179688 C 194.7826232910156 152.3179016113281 191.6670074462891 158.0307922363281 188.0390777587891 163.3756103515625 C 184.4438629150391 168.6720886230469 180.3146820068359 173.6530456542969 175.7662200927734 178.1800842285156 C 171.2171173095703 182.707763671875 166.2115478515625 186.8182983398438 160.8886108398438 190.3975067138672 C 155.5159454345703 194.0100402832031 149.7726898193359 197.1127166748047 143.8185119628906 199.6192626953125 C 137.7550506591797 202.1717987060547 131.4098663330078 204.1321563720703 124.959228515625 205.4459075927734 C 118.3360137939453 206.7948303222656 111.5166549682617 207.4787902832031 104.6904754638672 207.4787902832031 Z" stroke="none"/>
        <path d="M 104.6904754638672 199.9788208007812 C 111.014892578125 199.9788208007812 117.330680847168 199.3456115722656 123.4625549316406 198.0967407226562 C 129.4299774169922 196.8814392089844 135.2996368408203 195.0679931640625 140.9085998535156 192.7067718505859 C 146.4175567626953 190.3876953125 151.7318115234375 187.5167388916016 156.7036437988281 184.1736602783203 C 161.6309814453125 180.8604431152344 166.2644805908203 177.0554504394531 170.4755096435547 172.8641967773438 C 174.6852722167969 168.6742706298828 178.5067291259766 164.064697265625 181.8336029052734 159.1634826660156 C 185.1888427734375 154.2203674316406 188.0699310302734 148.9377288818359 190.3967590332031 143.4623565673828 C 192.7647705078125 137.8900299072266 194.5834350585938 132.0590209960938 195.8021392822266 126.1314010620117 C 197.0541381835938 120.0415725708008 197.6889801025391 113.7693634033203 197.6889801025391 107.4890670776367 C 197.6889801025391 101.2088623046875 197.0541381835938 94.93677520751953 195.8021850585938 88.84723663330078 C 194.5833892822266 82.91944122314453 192.7647705078125 77.08844757080078 190.3968048095703 71.51631927490234 C 188.0698089599609 66.0406494140625 185.1887664794922 60.7580680847168 181.8336486816406 55.81527709960938 C 178.5068969726562 50.91423797607422 174.6854705810547 46.30465316772461 170.4753875732422 42.11444473266602 C 166.2644348144531 37.92327880859375 161.6309356689453 34.11827850341797 156.7037200927734 30.80519485473633 C 151.7318572998047 27.46211051940918 146.4176025390625 24.59115219116211 140.9084777832031 22.27198600769043 C 135.2999267578125 19.91090202331543 129.4302673339844 18.09748649597168 123.4624328613281 16.8820686340332 C 122.2123947143555 16.62747764587402 120.9543075561523 16.39840698242188 119.6904754638672 16.19513511657715 L 119.6904754638672 148.9934844970703 L 21.55249214172363 148.9934844970703 C 23.1220874786377 152.09521484375 24.87213325500488 155.1155395507812 26.7974739074707 158.0429382324219 C 32.33660125732422 166.4648132324219 39.17797470092773 173.900146484375 47.13151550292969 180.1423187255859 C 55.15964126586914 186.4430236816406 64.09447479248047 191.3475646972656 73.68776702880859 194.7196960449219 C 83.61543273925781 198.2093963623047 94.0462646484375 199.9788208007812 104.6904754638672 199.9788208007812 M 104.6904754638672 214.9788208007812 C 92.34797668457031 214.9788208007812 80.24356079101562 212.9238586425781 68.71347808837891 208.8708953857422 C 57.56905746459961 204.9535217285156 47.19205856323242 199.2578582763672 37.87068176269531 191.9421997070312 C 28.63901710510254 184.6968994140625 20.69697570800781 176.0647430419922 14.26514148712158 166.2855224609375 C 7.724891662597656 156.3413543701172 2.925391435623169 145.4767303466797 1.645914744585752e-05 133.9934844970703 L 104.6904754638672 133.9934844970703 L 104.6904754638672 -1.38956702357973e-05 C 112.0195159912109 -1.38956702357973e-05 119.3422241210938 0.7349861264228821 126.4559783935547 2.183819532394409 C 133.3901062011719 3.596027851104736 140.2107696533203 5.703277587890625 146.7284393310547 8.44706916809082 C 153.1278839111328 11.14102745056152 159.3000640869141 14.47536087036133 165.0735626220703 18.35744476318359 C 170.7923126220703 22.20277786254883 176.1698913574219 26.61877822875977 181.0569763183594 31.48290252685547 C 185.9441833496094 36.34702682495117 190.3811340332031 41.69927597045898 194.2445526123047 47.39094543457031 C 198.1450653076172 53.1371955871582 201.4951782226562 59.28027725219727 204.2019348144531 65.64952850341797 C 206.9586486816406 72.13648986816406 209.0758972167969 78.92494201660156 210.4948425292969 85.82636260986328 C 211.9507293701172 92.90769195556641 212.6889801025391 100.1960678100586 212.6889801025391 107.4890670776367 C 212.6889801025391 114.7821502685547 211.9507293701172 122.0706100463867 210.4948425292969 129.1520690917969 C 209.0758972167969 136.0535278320312 206.9586486816406 142.8419799804688 204.2019348144531 149.3289794921875 C 201.4952239990234 155.6982727050781 198.1450653076172 161.8413543701172 194.2445526123047 167.5877380371094 C 190.3810577392578 173.2794799804688 185.9441375732422 178.6317749023438 181.0569763183594 183.4958648681641 C 176.1698455810547 188.3600311279297 170.7922210693359 192.7760314941406 165.0735626220703 196.6213226318359 C 159.2999725341797 200.5034790039062 153.1278076171875 203.8378143310547 146.7284393310547 206.53173828125 C 140.2106018066406 209.2755737304688 133.3899688720703 211.3828582763672 126.4559783935547 212.7950286865234 C 119.3412246704102 214.2440643310547 112.0182647705078 214.9788208007812 104.6904754638672 214.9788208007812 Z" stroke="none" fill="#0fbf61"/>
      </g>
      <g id="Group_208" data-name="Group 208" transform="translate(32.833 37.574)">
        <g id="Path_65-4" data-name="Path 65" transform="translate(0 0)" fill="#fff">
          <path d="M101.337,0A101.334,101.334,0,1,1,25.7,33.9,101.337,101.337,0,0,1,101.337,0Z" stroke="none"/>
          <path d="M 101.3365097045898 1.999984741210938 C 94.08950805664062 1.999984741210938 86.85878753662109 2.783737182617188 79.84520721435547 4.329483032226562 C 73.02314758300781 5.8330078125 66.34309387207031 8.070648193359375 59.99057006835938 10.98023986816406 C 53.75503540039062 13.83624267578125 47.79312133789062 17.35823059082031 42.27033996582031 21.44837951660156 C 36.79220581054688 25.50550842285156 31.71847534179688 30.141845703125 27.1900634765625 35.22862243652344 C 23.26211547851562 39.640869140625 19.70928955078125 44.42042541503906 16.63029479980469 49.43453979492188 C 13.51911926269531 54.50103759765625 10.85353088378906 59.86956787109375 8.7076416015625 65.39096069335938 C 4.256790161132812 76.84295654296875 2.000015258789062 88.936767578125 2.000015258789062 101.3364868164062 C 2.000015258789062 108.0776519775391 2.679031372070312 114.8139877319336 4.018203735351562 121.3583755493164 C 5.323150634765625 127.7354278564453 7.270294189453125 134.0080871582031 9.8055419921875 140.0021209716797 C 12.29498291015625 145.8877868652344 15.37628173828125 151.5646514892578 18.96392822265625 156.8750610351562 C 22.51783752441406 162.1355438232422 26.59931945800781 167.0823211669922 31.09498596191406 171.5779876708984 C 35.59068298339844 176.0736541748047 40.53746032714844 180.1551208496094 45.79792785644531 183.7090454101562 C 51.10832214355469 187.2966766357422 56.78520202636719 190.3780212402344 62.67086791992188 192.867431640625 C 68.66490173339844 195.4026794433594 74.93756866455078 197.3498229980469 81.31462097167969 198.6547698974609 C 87.8590087890625 199.9939270019531 94.59534454345703 200.6729583740234 101.3365097045898 200.6729583740234 C 108.0776748657227 200.6729583740234 114.8140106201172 199.9939270019531 121.3583984375 198.6547698974609 C 127.7354507446289 197.3498229980469 134.0081176757812 195.4026794433594 140.0021514892578 192.867431640625 C 145.8878173828125 190.3780212402344 151.564697265625 187.2966766357422 156.8750915527344 183.7090454101562 C 162.1355590820312 180.1551208496094 167.0823364257812 176.0736541748047 171.5780334472656 171.5779876708984 C 176.0736999511719 167.0823211669922 180.1551818847656 162.1355438232422 183.7090911865234 156.8750610351562 C 187.2967376708984 151.5646514892578 190.3780364990234 145.8877868652344 192.8674774169922 140.0021209716797 C 195.4027252197266 134.0080871582031 197.3498687744141 127.7354278564453 198.6548156738281 121.3583755493164 C 199.9939880371094 114.8139877319336 200.6730041503906 108.0776519775391 200.6730041503906 101.3364868164062 C 200.6730041503906 94.59532165527344 199.9939880371094 87.85898590087891 198.6548156738281 81.31459808349609 C 197.3498687744141 74.93756866455078 195.4027252197266 68.66490173339844 192.8674774169922 62.67085266113281 C 190.3780364990234 56.78520202636719 187.2967376708984 51.10832214355469 183.7090911865234 45.79789733886719 C 180.1551818847656 40.53742980957031 176.0736999511719 35.59065246582031 171.5780334472656 31.09498596191406 C 167.0823364257812 26.59928894042969 162.1355590820312 22.517822265625 156.8750915527344 18.96392822265625 C 151.564697265625 15.37629699707031 145.8878173828125 12.29495239257812 140.0021514892578 9.805511474609375 C 134.0081176757812 7.270263671875 127.7354507446289 5.3231201171875 121.3583984375 4.0181884765625 C 114.8140106201172 2.67901611328125 108.0776748657227 1.999984741210938 101.3365097045898 1.999984741210938 M 101.3365097045898 -1.52587890625e-05 C 157.3031158447266 -1.52587890625e-05 202.6730041503906 45.36990356445312 202.6730041503906 101.3364868164062 C 202.6730041503906 157.3031005859375 157.3031158447266 202.6729583740234 101.3365097045898 202.6729583740234 C 45.36990356445312 202.6729583740234 1.52587890625e-05 157.3031005859375 1.52587890625e-05 101.3364868164062 C 1.52587890625e-05 75.48007202148438 9.683837890625 51.88540649414062 25.69625854492188 33.89875793457031 C 44.183349609375 13.13215637207031 71.22634887695312 -1.52587890625e-05 101.3365097045898 -1.52587890625e-05 Z" stroke="none" fill="rgba(15,191,97,0.2)"/>
        </g>
      </g>
      <text id="_75_" data-name="75%" transform="translate(133.065 145)" fill="#151d41" font-size="54" font-family="SegoeUIBlack, Segoe UI"><tspan x="-56.597" y="0">75%</tspan></text>
      <text id="Grafic_design" data-name="Grafic design" transform="translate(71.065 183)" fill="#151d41" font-size="15" font-family="Montserrat-Regular, Montserrat"><tspan x="0" y="0">GRAFIC DESIGN</tspan></text>
    </g>
    <g id="Group_232" data-name="Group 232" transform="translate(850.869 2216.92)">
      <g transform="matrix(1, 0, 0, 1, -685.87, -15)" filter="url(#Ellipse_32)">
        <ellipse id="Ellipse_32-2" data-name="Ellipse 32" cx="139" cy="138" rx="139" ry="138" transform="translate(686 15)" fill="#fff"/>
      </g>
      <g id="Subtraction_11" data-name="Subtraction 11" transform="translate(138.15 32.21)" fill="#fff">
        <path d="M 100.1467666625977 100.3314895629883 L 7.50000524520874 100.3314895629883 L 7.50000524520874 7.782236099243164 C 11.77033424377441 8.099922180175781 16.00976181030273 8.684828758239746 20.17198371887207 9.532261848449707 C 26.62165069580078 10.84578227996826 32.96681594848633 12.8061580657959 39.03090286254883 15.35886573791504 C 44.98423385620117 17.86513710021973 50.72754669189453 20.96786689758301 56.10108947753906 24.58080291748047 C 61.42136001586914 28.15826225280762 66.427001953125 32.26894760131836 70.97866821289062 36.79855346679688 C 75.52646636962891 41.324951171875 79.65577697753906 46.30603408813477 83.25154876708984 51.60307312011719 C 86.88011169433594 56.94903182983398 89.99565124511719 62.66173934936523 92.51139831542969 68.58217620849609 C 95.07398223876953 74.61207580566406 97.04192352294922 80.92173767089844 98.36064910888672 87.33619689941406 C 99.23799896240234 91.60369873046875 99.83507537841797 95.95214080810547 100.1467666625977 100.3314895629883 Z" stroke="none"/>
        <path d="M 91.74144744873047 92.83147430419922 C 91.5281982421875 91.49580383300781 91.28575897216797 90.1668701171875 91.01430511474609 88.84653472900391 C 89.79566192626953 82.91897583007812 87.97704315185547 77.08809661865234 85.60874938964844 71.51529693603516 C 83.28289794921875 66.04177093505859 80.40189361572266 60.75935745239258 77.04621887207031 55.8154182434082 C 73.71868896484375 50.91353607177734 69.89707183837891 46.30368041992188 65.68827819824219 42.11471176147461 C 61.47454071044922 37.92141723632812 56.84083557128906 34.11609268188477 51.91633605957031 30.80480003356934 C 46.94354248046875 27.46129989624023 41.62913131713867 24.59018135070801 36.12110137939453 22.27135848999023 C 30.51139450073242 19.90997695922852 24.64165878295898 18.09650611877441 18.67568969726562 16.88150596618652 C 17.457275390625 16.63343238830566 16.23162651062012 16.40966606140137 15.00001239776611 16.21032524108887 L 15.00001239776611 92.83147430419922 L 91.74144744873047 92.83147430419922 M 107.9007186889648 107.8314743041992 L 107.8998947143555 107.8314743041992 L 107.9007186889648 107.8314743041992 Z M 107.9007186889648 107.8314743041992 L 1.254092967428733e-05 107.8314743041992 L 1.254092967428733e-05 5.672679435519967e-06 C 7.296630382537842 0.006417437456548214 14.58662986755371 0.7412115335464478 21.66833686828613 2.183064460754395 C 28.60145378112793 3.595035076141357 35.42206954956055 5.70229959487915 41.94074630737305 8.446329116821289 C 48.33939361572266 11.14009380340576 54.51156997680664 14.4744758605957 60.28580856323242 18.3568286895752 C 66.00192260742188 22.20041656494141 71.37948608398438 26.61647605895996 76.26907348632812 31.48235893249512 C 81.15583801269531 36.34612274169922 85.59283447265625 41.6984748840332 89.45689392089844 47.39073944091797 C 93.35833740234375 53.13874053955078 96.70842742919922 59.28171157836914 99.41407012939453 65.64906311035156 C 102.1709518432617 72.13618469238281 104.2881927490234 78.92462158203125 105.7070159912109 85.82588958740234 C 107.1630096435547 92.90794372558594 107.9012451171875 100.1964797973633 107.9012451171875 107.4890365600586 C 107.9012451171875 107.6026840209961 107.9010696411133 107.7170028686523 107.9007186889648 107.8306503295898 L 107.9007186889648 107.8314743041992 Z" stroke="none" fill="#0fbf61"/>
      </g>
      <g id="Group_212" data-name="Group 212" transform="translate(36.015 37.574)">
        <g id="Path_65-5" data-name="Path 65" transform="translate(0 0)" fill="#fff">
          <path d="M101.337,0A101.334,101.334,0,1,1,25.7,33.9,101.337,101.337,0,0,1,101.337,0Z" stroke="none"/>
          <path d="M 101.3365097045898 1.999984741210938 C 94.08950805664062 1.999984741210938 86.85878753662109 2.783737182617188 79.84520721435547 4.329483032226562 C 73.02314758300781 5.8330078125 66.34309387207031 8.070648193359375 59.99057006835938 10.98023986816406 C 53.75503540039062 13.83624267578125 47.79312133789062 17.35823059082031 42.27033996582031 21.44837951660156 C 36.79220581054688 25.50550842285156 31.71847534179688 30.141845703125 27.1900634765625 35.22862243652344 C 23.26211547851562 39.640869140625 19.70928955078125 44.42042541503906 16.63029479980469 49.43453979492188 C 13.51911926269531 54.50103759765625 10.85353088378906 59.86956787109375 8.7076416015625 65.39096069335938 C 4.256790161132812 76.84295654296875 2.000015258789062 88.936767578125 2.000015258789062 101.3364868164062 C 2.000015258789062 108.0776519775391 2.679031372070312 114.8139877319336 4.018203735351562 121.3583755493164 C 5.323150634765625 127.7354278564453 7.270294189453125 134.0080871582031 9.8055419921875 140.0021209716797 C 12.29498291015625 145.8877868652344 15.37628173828125 151.5646514892578 18.96392822265625 156.8750610351562 C 22.51783752441406 162.1355438232422 26.59931945800781 167.0823211669922 31.09498596191406 171.5779876708984 C 35.59068298339844 176.0736541748047 40.53746032714844 180.1551208496094 45.79792785644531 183.7090454101562 C 51.10832214355469 187.2966766357422 56.78520202636719 190.3780212402344 62.67086791992188 192.867431640625 C 68.66490173339844 195.4026794433594 74.93756866455078 197.3498229980469 81.31462097167969 198.6547698974609 C 87.8590087890625 199.9939270019531 94.59534454345703 200.6729583740234 101.3365097045898 200.6729583740234 C 108.0776748657227 200.6729583740234 114.8140106201172 199.9939270019531 121.3583984375 198.6547698974609 C 127.7354507446289 197.3498229980469 134.0081176757812 195.4026794433594 140.0021514892578 192.867431640625 C 145.8878173828125 190.3780212402344 151.564697265625 187.2966766357422 156.8750915527344 183.7090454101562 C 162.1355590820312 180.1551208496094 167.0823364257812 176.0736541748047 171.5780334472656 171.5779876708984 C 176.0736999511719 167.0823211669922 180.1551818847656 162.1355438232422 183.7090911865234 156.8750610351562 C 187.2967376708984 151.5646514892578 190.3780364990234 145.8877868652344 192.8674774169922 140.0021209716797 C 195.4027252197266 134.0080871582031 197.3498687744141 127.7354278564453 198.6548156738281 121.3583755493164 C 199.9939880371094 114.8139877319336 200.6730041503906 108.0776519775391 200.6730041503906 101.3364868164062 C 200.6730041503906 94.59532165527344 199.9939880371094 87.85898590087891 198.6548156738281 81.31459808349609 C 197.3498687744141 74.93756866455078 195.4027252197266 68.66490173339844 192.8674774169922 62.67085266113281 C 190.3780364990234 56.78520202636719 187.2967376708984 51.10832214355469 183.7090911865234 45.79789733886719 C 180.1551818847656 40.53742980957031 176.0736999511719 35.59065246582031 171.5780334472656 31.09498596191406 C 167.0823364257812 26.59928894042969 162.1355590820312 22.517822265625 156.8750915527344 18.96392822265625 C 151.564697265625 15.37629699707031 145.8878173828125 12.29495239257812 140.0021514892578 9.805511474609375 C 134.0081176757812 7.270263671875 127.7354507446289 5.3231201171875 121.3583984375 4.0181884765625 C 114.8140106201172 2.67901611328125 108.0776748657227 1.999984741210938 101.3365097045898 1.999984741210938 M 101.3365097045898 -1.52587890625e-05 C 157.3031158447266 -1.52587890625e-05 202.6730041503906 45.36990356445312 202.6730041503906 101.3364868164062 C 202.6730041503906 157.3031005859375 157.3031158447266 202.6729583740234 101.3365097045898 202.6729583740234 C 45.36990356445312 202.6729583740234 1.52587890625e-05 157.3031005859375 1.52587890625e-05 101.3364868164062 C 1.52587890625e-05 75.48007202148438 9.683837890625 51.88540649414062 25.69625854492188 33.89875793457031 C 44.183349609375 13.13215637207031 71.22634887695312 -1.52587890625e-05 101.3365097045898 -1.52587890625e-05 Z" stroke="none" fill="rgba(15,191,97,0.2)"/>
        </g>
      </g>
      <text id="_25_" data-name="25%" transform="translate(135.131 145)" fill="#151d41" font-size="54" font-family="SegoeUIBlack, Segoe UI"><tspan x="-56.597" y="0">25%</tspan></text>
      <text id="Backend" transform="translate(100.131 179)" fill="#151d41" font-size="15" font-family="Montserrat-Regular, Montserrat"><tspan x="0" y="0">BACKEND</tspan></text>
    </g>
  </g>
</svg>
