<svg xmlns="http://www.w3.org/2000/svg" xmlns:xlink="http://www.w3.org/1999/xlink" width="148.133" height="175.397" viewBox="0 0 148.133 175.397">
  <defs>
    <linearGradient id="linear-gradient" x1="0.301" y1="1.397" x2="0.699" y2="-0.277" gradientUnits="objectBoundingBox">
      <stop offset="0" stop-color="#daccd2"/>
      <stop offset="0.998" stop-color="#b0339f"/>
    </linearGradient>
  </defs>
  <g id="Face" transform="translate(-161.72 -3.015)">
    <ellipse id="Ellipse_42" data-name="Ellipse 42" cx="57.798" cy="85.912" rx="57.798" ry="85.912" transform="translate(194.257 5.617)" fill="#0fbf61"/>
    <path id="Path_362" data-name="Path 362" d="M191.115,177.442s24.01,2.607,39.952-.728S257.828,69.5,257.828,69.5L232.179,6.551S197.685-2.17,178.25,7.78C161.047,16.587,191.115,177.442,191.115,177.442Z" transform="translate(28.404 0)" fill="#0fbf61" fill-rule="evenodd"/>
    <ellipse id="Ellipse_43" data-name="Ellipse 43" cx="57.798" cy="85.912" rx="57.798" ry="85.912" transform="translate(161.719 5.617)" fill="#0fbf61"/>
    <path id="Path_363" data-name="Path 363" d="M254.552,32.919a108.015,108.015,0,0,1-6.425,21.134c-6.457,15.44-18.637,33.682-40.015,33.618-15.408-.028-25.338-8.5-31.732-18.725l-.032-.032c-9.714-15.532-11.237-35.08-11.237-35.08Z" transform="translate(8.589 75.729)" fill="#83214f" fill-rule="evenodd"/>
    <path id="Path_364" data-name="Path 364" d="M180.478,36.4S199.171,24.694,217.4,31.4V23.931S193.05,17.8,180.478,33.3Z" transform="translate(47.504 49.941)" fill="#54214f" fill-rule="evenodd"/>
    <path id="Path_365" data-name="Path 365" d="M254.552,32.919a108.015,108.015,0,0,1-6.425,21.134s-11.085-4.052-38.309,0c-27.228,4.08-33.438,14.893-33.438,14.893l-.032-.032c-9.714-15.532-11.237-35.08-11.237-35.08Z" transform="translate(8.589 75.729)" fill="#9a2463" fill-rule="evenodd" opacity="0.5" style="mix-blend-mode: multiply;isolation: isolate"/>
    <path id="Path_366" data-name="Path 366" d="M192.564,36.4s-13.9-11.71-27.457-5.005V23.931S183.214,17.8,192.564,33.3Z" transform="translate(8.579 49.941)" fill="#54214f" fill-rule="evenodd"/>
    <path id="Path_367" data-name="Path 367" d="M167.046,33.768l6.88,14.082H245.6l4.052-14.934Z" transform="translate(13.488 75.721)" fill="#fff" fill-rule="evenodd"/>
    <path id="Path_368" data-name="Path 368" d="M205.642,26.866s20.421-3.017,32.544,0c0,0-8.121-11.268-16.274-17.923,0,0-19.022-4.377-38.14-3.614C183.773,5.329,198.337,12.754,205.642,26.866Z" transform="translate(55.849 5.634)" fill="#fbf9fa" fill-rule="evenodd" opacity="0.5" style="mix-blend-mode: soft-light;isolation: isolate"/>
    <path id="Path_369" data-name="Path 369" d="M183.773,63.8s11.865,2.964,32.537,0c0,0,8.28-4.38,16.761-14.395,0,0-13.734-1.162-29.782-3.631C203.29,45.777,194.66,57.762,183.773,63.8Z" transform="translate(55.849 108.291)" fill-rule="evenodd" opacity="0.5" fill="url(#linear-gradient)" style="mix-blend-mode: multiply;isolation: isolate"/>
  </g>
</svg>
