<svg xmlns="http://www.w3.org/2000/svg" width="1920" height="285" viewBox="0 0 1920 285">
  <g id="Group_296" data-name="Group 296" transform="translate(-0.5 -10109)">
    <g id="Group_243" data-name="Group 243" transform="translate(0 -340)">
      <text id="I_hope_we_will_work_together_and_make_your_projects_stand_out_from_the_rest_with_best_practices_SEO_and_good_looks" data-name="I hope we will work together and make your projects stand out from the rest with best practices, SEO and good looks" transform="translate(220 10579)" fill="#151d41" font-size="16" font-family="Montserrat-Light, Montserrat" font-weight="300"><tspan x="0" y="15">I hope we will work together and make your projects </tspan><tspan x="0" y="50">stand out from the rest with best practices, SEO and </tspan><tspan x="0" y="85">good looks</tspan></text>
      <g id="Group_143" data-name="Group 143" transform="translate(-373 -964)">
        <g id="facebook" transform="translate(436.923 11610)">
          <path id="Path_58" data-name="Path 58" d="M36.311.006,32.764,0C28.778,0,26.2,2.643,26.2,6.733v3.1H22.635a.558.558,0,0,0-.558.558v4.5a.558.558,0,0,0,.558.558H26.2V26.8a.558.558,0,0,0,.558.558h4.654a.558.558,0,0,0,.558-.558V15.451h4.171a.558.558,0,0,0,.558-.558l0-4.5a.558.558,0,0,0-.558-.558H31.972V7.206c0-1.265.3-1.907,1.949-1.907h2.39a.558.558,0,0,0,.558-.558V.564A.558.558,0,0,0,36.311.006Z" fill="#fff"/>
        </g>
        <g id="twitter" transform="translate(499 11533.531)">
          <g id="Group_67" data-name="Group 67" transform="translate(0 78.469)">
            <path id="Path_59" data-name="Path 59" d="M28.984,81.257a12.389,12.389,0,0,1-3.424.938,5.909,5.909,0,0,0,2.614-3.284,11.875,11.875,0,0,1-3.768,1.438,5.942,5.942,0,0,0-10.279,4.063,6.118,6.118,0,0,0,.138,1.355A16.819,16.819,0,0,1,2.018,79.552a5.944,5.944,0,0,0,1.826,7.942,5.868,5.868,0,0,1-2.685-.732v.065A5.969,5.969,0,0,0,5.92,92.666a5.931,5.931,0,0,1-1.558.2,5.253,5.253,0,0,1-1.125-.1A6,6,0,0,0,8.789,96.9a11.939,11.939,0,0,1-7.367,2.534A11.13,11.13,0,0,1,0,99.352a16.728,16.728,0,0,0,9.116,2.667c10.934,0,16.912-9.058,16.912-16.909,0-.263-.009-.516-.022-.768A11.854,11.854,0,0,0,28.984,81.257Z" transform="translate(0 -78.469)" fill="#fff"/>
          </g>
        </g>
        <g id="dribble" transform="translate(553 11611)">
          <path id="Path_60" data-name="Path 60" d="M23.532,6.281a12.559,12.559,0,0,0-4.59-4.59A12.336,12.336,0,0,0,12.612,0,12.336,12.336,0,0,0,6.281,1.691a12.556,12.556,0,0,0-4.59,4.59A12.336,12.336,0,0,0,0,12.612a12.339,12.339,0,0,0,1.691,6.33,12.559,12.559,0,0,0,4.59,4.59,12.338,12.338,0,0,0,6.331,1.691,12.338,12.338,0,0,0,6.331-1.691,12.555,12.555,0,0,0,4.59-4.59,12.338,12.338,0,0,0,1.691-6.33A12.339,12.339,0,0,0,23.532,6.281ZM12.612,1.839a10.38,10.38,0,0,1,7.11,2.693l-.205.287a7.123,7.123,0,0,1-.616.665,10.555,10.555,0,0,1-1.076.936,14.407,14.407,0,0,1-1.585,1.01,15.244,15.244,0,0,1-2.135.994,46.833,46.833,0,0,0-4.04-6.273A10.864,10.864,0,0,1,12.612,1.839ZM4.171,5.928A10.627,10.627,0,0,1,8.014,2.874a56.531,56.531,0,0,1,4.007,6.207,38.958,38.958,0,0,1-9.951,1.314A10.647,10.647,0,0,1,4.171,5.928ZM2.562,16.5a10.567,10.567,0,0,1-.723-3.884,2.676,2.676,0,0,1,.016-.345A38.408,38.408,0,0,0,12.908,10.74q.526,1.018.87,1.823a1.328,1.328,0,0,1-.214.074l-.214.057-.607.213a12.63,12.63,0,0,0-1.634.788q-1.01.559-2.143,1.33a14.672,14.672,0,0,0-2.34,2.045A13.764,13.764,0,0,0,4.6,19.8,10.785,10.785,0,0,1,2.562,16.5Zm10.05,6.889a10.57,10.57,0,0,1-6.864-2.463l.246.181a8.789,8.789,0,0,1,1.691-2.431,14.276,14.276,0,0,1,2.151-1.881,21.2,21.2,0,0,1,2.25-1.347q1.215-.632,1.659-.8t.706-.271l.033-.017h.033a44.393,44.393,0,0,1,2.3,8.178A10.767,10.767,0,0,1,12.612,23.384Zm9.065-4.951a10.761,10.761,0,0,1-3.038,3.112,46.268,46.268,0,0,0-2.1-7.7,15.514,15.514,0,0,1,6.716.476A10.627,10.627,0,0,1,21.677,18.433Zm1.543-5.969q-.164-.033-.411-.074l-.6-.1q-.353-.057-.788-.107t-.928-.09q-.492-.041-1.051-.066T18.31,12q-.574,0-1.207.033t-1.223.115a1.945,1.945,0,0,1-.123-.271c-.049-.126-.085-.222-.106-.287q-.312-.69-.723-1.56a16.852,16.852,0,0,0,2.16-1.059,16.784,16.784,0,0,0,1.642-1.067,13.65,13.65,0,0,0,1.166-.994,9.477,9.477,0,0,0,.715-.731q.164-.206.312-.4l.017-.017A10.534,10.534,0,0,1,23.384,12.5Z" transform="translate(0 0)" fill="#fff"/>
        </g>
        <g id="linkedin" transform="translate(603.319 11611.25)">
          <g id="Group_69" data-name="Group 69" transform="translate(0 7.812)">
            <g id="Group_68" data-name="Group 68">
              <rect id="Rectangle_78" data-name="Rectangle 78" width="5.54" height="17.032" fill="#fff"/>
            </g>
          </g>
          <g id="Group_71" data-name="Group 71" transform="translate(7.742 7.812)">
            <g id="Group_70" data-name="Group 70">
              <path id="Path_61" data-name="Path 61" d="M172.889,160.2c-.059-.019-.115-.039-.177-.056s-.149-.031-.225-.043a4.965,4.965,0,0,0-.994-.1,7.7,7.7,0,0,0-5.954,3.256V160H160v17.032h5.54v-9.29s4.187-5.831,5.953-1.548v10.839h5.539V165.539A5.524,5.524,0,0,0,172.889,160.2Z" transform="translate(-160 -160)" fill="#fff"/>
            </g>
          </g>
          <g id="Group_73" data-name="Group 73" transform="translate(0.024 0.093)">
            <g id="Group_72" data-name="Group 72" transform="translate(0 0)">
              <circle id="Ellipse_14" data-name="Ellipse 14" cx="3" cy="3" r="3" transform="translate(-0.343 -0.343)" fill="#fff"/>
            </g>
          </g>
        </g>
      </g>
      <text id="I_m_a_Front-End_designer_living_in_syria_damascus_" data-name="I’m a Front-End &amp; designer living in syria damascus " transform="translate(829 10499)" fill="#151d41" font-size="32" font-family="SegoeUI-Bold, Segoe UI" font-weight="700"><tspan x="0" y="0">I’m a Front-End &amp; designer living in syria damascus </tspan></text>
      <text id="SENT_MAIL" data-name="SENT MAIL" transform="translate(827 10548)" fill="#0fbf61" font-size="18" font-family="SegoeUI, Segoe UI"><tspan x="0" y="19">SENT MAIL</tspan></text>
      <text id="MhmadKrimAldeen_Gmail.com_" data-name="MhmadKrimAldeen
@Gmail.com
" transform="translate(829 10593)" fill="#151d41" font-size="20" font-family="SegoeUI-Bold, Segoe UI" font-weight="700"><tspan x="0" y="22">MhmadKrimAldeen</tspan><tspan x="0" y="62">@Gmail.com</tspan></text>
      <text id="MAKE_CALL" data-name="MAKE CALL" transform="translate(1163 10548)" fill="#0fbf61" font-size="18" font-family="SegoeUI, Segoe UI"><tspan x="0" y="19">MAKE CALL</tspan></text>
      <text id="_0957551401_0951968995" data-name="0957551401
0951968995" transform="translate(1165 10593)" fill="#151d41" font-size="20" font-family="SegoeUI-Bold, Segoe UI" font-weight="700"><tspan x="0" y="22">0957551401</tspan><tspan x="0" y="62">0951968995</tspan></text>
      <text id="get_in_touch" data-name="get in touch" transform="translate(1453 10548)" fill="#0fbf61" font-size="18" font-family="SegoeUI, Segoe UI"><tspan x="0" y="19">GET IN TOUCH</tspan></text>
      <text id="Alheat_Aladoe_syria_damascus_" data-name="Alheat Aladoe
syria damascus 
" transform="translate(1455 10593)" fill="#151d41" font-size="20" font-family="SegoeUI-Bold, Segoe UI" font-weight="700"><tspan x="0" y="22">Alheat Aladoe</tspan><tspan x="0" y="62">syria Damascus </tspan></text>
      <path id="Path_373" data-name="Path 373" d="M0,0H1920" transform="translate(0.5 10731.5)" fill="none" stroke="#151d41" stroke-width="5"/>
      <g id="Group_241" data-name="Group 241" transform="translate(193 10412)">
        <g id="Group_66" data-name="Group 66" transform="translate(48 37)">
          <path id="loo" d="M234,143h0Z" transform="translate(0 -106.532)" fill="rgba(255,255,255,0)"/>
          <path id="Path_56" data-name="Path 56" d="M3.913,0h117.8a3.913,3.913,0,0,1,3.913,3.913V68.087A3.913,3.913,0,0,1,121.714,72H3.913A3.913,3.913,0,0,1,0,68.087V3.913A3.913,3.913,0,0,1,3.913,0Z" transform="translate(146.582)" fill="#0fbf61"/>
          <text id="Karim_" data-name="Karim  " transform="translate(2 53)" fill="#151d41" font-size="49" font-family="SegoeUI-Bold, Segoe UI" font-weight="700"><tspan x="0" y="0" xml:space="preserve">Karim  </tspan></text>
        </g>
      </g>
    </g>
    <g id="karim_b" data-name="karim b" transform="translate(372.893 10104.011)">
      <line id="Line_32" data-name="Line 32" transform="translate(41.218 15.079)"/>
      <line id="Line_33" data-name="Line 33" transform="translate(42.974 19.918)"/>
      <g id="Group_258" data-name="Group 258" transform="translate(41.218 15.079)">
        <path id="Path_117" data-name="Path 117" d="M8.482,8.537a1.328,1.328,0,0,1,0,.427C7.913,17.6,12.23,30.836,22.146,19.354h1a5.409,5.409,0,0,1,2.609,2.135,1.044,1.044,0,0,1,0,1.281c-7.116,8.824-18.028-.807-18.977-11.956a3.131,3.131,0,0,1,0-.664A19.451,19.451,0,0,0,8.624,8.49Z" transform="translate(19.64 23.158)" fill="#fff"/>
        <path id="Path_118" data-name="Path 118" d="M36.051,10.267v1.471a8.635,8.635,0,0,1-.569,1.661A20.164,20.164,0,0,1,34.2,15.866,10.675,10.675,0,0,1,32.54,18a17.269,17.269,0,0,1-2.277,1.9,13.711,13.711,0,0,1-2.514,1.234v-1.9a9.489,9.489,0,0,0,3.416-2.325,13.047,13.047,0,0,0,1.328-1.755,9.488,9.488,0,0,0,1-2.182,4.744,4.744,0,0,0,.474-1.281A5.835,5.835,0,0,0,34.2,10.5a3.89,3.89,0,0,0-.285-2.04,1.945,1.945,0,0,0-2.04-1.044,4.744,4.744,0,0,0-1.186.38,3.368,3.368,0,0,0-.664.474,4.08,4.08,0,0,0-.664.617C26.183,11.88,26.183,21.8,25.8,25.734a22.286,22.286,0,0,1-.664,4.222c10.58-1.661,23.247-16.89,21.4-27.28,0,0,0-.38.569-.522a7.069,7.069,0,0,1,1.613-.285,9.868,9.868,0,0,1,1.993,0,4.744,4.744,0,0,1,1.755.807c.474.38,1.708,1.8,1.044,1.566-6.5-2.182-2.7,8.255-3.89,10.2a37.954,37.954,0,0,1-25,17.981A28.134,28.134,0,0,1,14.18,48.506C-.2,58.327-3.517,38.686,8.676,35.27a7.306,7.306,0,0,1,3.368,0c.332,0,.474.332.474.807a2.8,2.8,0,0,1-.332,1.376,2.989,2.989,0,0,1-.854,1.139.759.759,0,0,1-1.044,0C.8,30.81-1.334,63.356,11.9,43.952a26.71,26.71,0,0,0,2.847-5.835,62.72,62.72,0,0,0,3.463-12.762C21.723.636,36.763,1.633,36.051,10.315Z" transform="translate(-1.193 -1.819)" fill="#fff"/>
        <path id="Path_119" data-name="Path 119" d="M36.449,31.032a21.016,21.016,0,0,0-1.85-1.613c-3.226,7.5-7.069,14.233-10.058,12.335s0-9.489,1.708-11.766,3.7-3.226,5.456-2.7a2.359,2.359,0,0,1,.427-1c.664-1.708,1.376-3.511,2.04-5.314-2.847,3.463-6.073,5.5-9.251,3.606a10.438,10.438,0,0,1-4.175-6.215v2.277c-.759,5.551-2.657,13.237-8.919,14.8H10.45l1.328-.38c7.116-2.609,7.022-13,6.879-19.214,0-1.423-.427-3.843,1-4.744,3.084-1.613,4.317,7.781,7.022,9.963S36.164,11.58,37.113,9.777,39.2,5.033,40.244,3.183a1.755,1.755,0,0,1,3.274,1.091c0,.474-2.325,7.354-2.514,7.97-.617,1.85-3.036,9.489-6.025,16.558a17.839,17.839,0,0,1,1.708,1.993ZM31.7,27.758c-2.087-.237-3.843,1.234-5.124,5.029a16.083,16.083,0,0,0-.712,6.357l.854-.949A74.532,74.532,0,0,0,31.7,27.758ZM26.059,39.524Z" transform="translate(33.47 -0.096)" fill="#fff" fill-rule="evenodd"/>
        <circle id="Ellipse_34" data-name="Ellipse 34" cx="0.949" cy="0.949" r="0.949" transform="translate(51.511 5.506)" fill="#fff"/>
      </g>
    </g>
  </g>
</svg>
