<svg id="Logo" xmlns="http://www.w3.org/2000/svg" width="87.855" height="56.373" viewBox="0 0 87.855 56.373">
  <path id="Path_117" data-name="Path 117" d="M8.725,8.544a1.516,1.516,0,0,1,0,.487C8.076,18.883,13,33.985,24.314,20.886h1.137a6.171,6.171,0,0,1,2.977,2.436,1.191,1.191,0,0,1,0,1.461c-8.119,10.068-20.569-.92-21.652-13.64a3.573,3.573,0,0,1,0-.758A22.192,22.192,0,0,0,8.887,8.49Z" transform="translate(23.359 27.617)" fill="#151d41"/>
  <path id="Path_118" data-name="Path 118" d="M40.963,11.458v1.678a9.852,9.852,0,0,1-.65,1.895,23,23,0,0,1-1.461,2.815,12.179,12.179,0,0,1-1.895,2.436,19.7,19.7,0,0,1-2.6,2.165,15.643,15.643,0,0,1-2.869,1.407V21.688a10.826,10.826,0,0,0,3.9-2.652,14.885,14.885,0,0,0,1.516-2,10.825,10.825,0,0,0,1.137-2.49,5.413,5.413,0,0,0,.541-1.461,6.658,6.658,0,0,0,.271-1.353A4.439,4.439,0,0,0,38.527,9.4,2.219,2.219,0,0,0,36.2,8.21a5.413,5.413,0,0,0-1.353.433,3.843,3.843,0,0,0-.758.541,4.655,4.655,0,0,0-.758.7C29.7,13.3,29.7,24.611,29.271,29.1a25.426,25.426,0,0,1-.758,4.817C40.584,32.027,55.037,14.651,52.926,2.8c0,0,0-.433.65-.6a8.065,8.065,0,0,1,1.84-.325,11.259,11.259,0,0,1,2.273,0,5.413,5.413,0,0,1,2,.92c.541.433,1.949,2.057,1.191,1.786C53.467,2.093,57.8,14,56.444,16.221A43.3,43.3,0,0,1,27.918,36.736,32.1,32.1,0,0,1,16.01,55.086c-16.4,11.2-20.19-11.2-6.279-15.1a8.336,8.336,0,0,1,3.843,0c.379,0,.541.379.541.92a3.194,3.194,0,0,1-.379,1.57,3.41,3.41,0,0,1-.974,1.3.866.866,0,0,1-1.191,0C.745,34.9-1.69,72.028,13.412,49.889a30.474,30.474,0,0,0,3.248-6.658,71.559,71.559,0,0,0,3.951-14.561C24.616.47,41.775,1.606,40.963,11.512Z" transform="translate(-1.193 -1.819)" fill="#151d41"/>
  <path id="Path_119" data-name="Path 119" d="M40.113,35.084A23.978,23.978,0,0,0,38,33.243C34.321,41.8,29.936,49.482,26.526,47.317s0-10.826,1.949-13.424S32.7,30.212,34.7,30.808a2.691,2.691,0,0,1,.487-1.137c.758-1.949,1.57-4.006,2.328-6.062-3.248,3.951-6.928,6.279-10.555,4.114A11.908,11.908,0,0,1,22.2,20.631v2.6c-.866,6.333-3.031,15.1-10.176,16.888H10.45l1.516-.433c8.119-2.977,8.011-14.831,7.849-21.922,0-1.624-.487-4.384,1.137-5.413,3.518-1.84,4.926,8.877,8.011,11.367S39.788,12.891,40.87,10.834s2.382-5.413,3.573-7.524a2,2,0,0,1,3.735,1.245c0,.541-2.652,8.39-2.869,9.094-.7,2.111-3.464,10.826-6.874,18.891a20.353,20.353,0,0,1,1.949,2.273ZM34.7,31.349c-2.382-.271-4.384,1.407-5.846,5.738a18.35,18.35,0,0,0-.812,7.253l.974-1.083A85.035,85.035,0,0,0,34.7,31.349ZM28.258,44.773Z" transform="translate(39.659 0.212)" fill="#0fbf61" fill-rule="evenodd"/>
  <circle id="Ellipse_34" data-name="Ellipse 34" cx="1.083" cy="1.083" r="1.083" transform="translate(58.77 6.282)" fill="#0fbf61"/>
</svg>
