<svg xmlns="http://www.w3.org/2000/svg" width="285.658" height="296" viewBox="0 0 285.658 296">
  <g id="O" fill="none">
    <path d="M142.829,0a138.417,138.417,0,0,1,59.5,13.414C251.394,36.628,285.658,88.168,285.658,148c0,81.738-63.947,148-142.829,148S0,229.738,0,148,63.947,0,142.829,0Z" stroke="none"/>
    <path d="M 142.828857421875 35 C 83.37185668945312 35 35 85.69157409667969 35 148 C 35 210.3084259033203 83.37185668945312 261 142.828857421875 261 C 202.2858581542969 261 250.65771484375 210.3084259033203 250.65771484375 148 C 250.65771484375 103.6539306640625 225.8123626708984 63.24443054199219 187.3606414794922 45.05186462402344 C 173.2637939453125 38.38192749023438 158.2811431884766 35 142.828857421875 35 M 142.828857421875 0 C 163.9692840576172 0 184.0370025634766 4.75921630859375 202.3298645019531 13.41448974609375 C 251.3935699462891 36.6279296875 285.65771484375 88.16770935058594 285.65771484375 148 C 285.65771484375 229.7381439208984 221.7110748291016 296 142.828857421875 296 C 63.94664001464844 296 0 229.7381439208984 0 148 C 0 66.26185607910156 63.94664001464844 0 142.828857421875 0 Z" stroke="none" fill="#0fbf61"/>
  </g>
</svg>
