<svg xmlns="http://www.w3.org/2000/svg" xmlns:xlink="http://www.w3.org/1999/xlink" width="937" height="406" viewBox="0 0 937 406">
  <defs>
    <filter id="Rectangle_5" x="356.5" y="269" width="425" height="38" filterUnits="userSpaceOnUse">
      <feOffset dy="3" input="SourceAlpha"/>
      <feGaussianBlur stdDeviation="3" result="blur"/>
      <feFlood flood-opacity="0.161"/>
      <feComposite operator="in" in2="blur"/>
      <feComposite in="SourceGraphic"/>
    </filter>
    <filter id="Path_7" x="814" y="230.5" width="123" height="123" filterUnits="userSpaceOnUse">
      <feOffset dy="5" input="SourceAlpha"/>
      <feGaussianBlur stdDeviation="7.5" result="blur-2"/>
      <feFlood flood-color="#754ef9" flood-opacity="0.161"/>
      <feComposite operator="in" in2="blur-2"/>
      <feComposite in="SourceGraphic"/>
    </filter>
    <filter id="Path_7-2" x="0" y="230.5" width="123" height="123" filterUnits="userSpaceOnUse">
      <feOffset dy="5" input="SourceAlpha"/>
      <feGaussianBlur stdDeviation="7.5" result="blur-3"/>
      <feFlood flood-color="#754ef9" flood-opacity="0.161"/>
      <feComposite operator="in" in2="blur-3"/>
      <feComposite in="SourceGraphic"/>
    </filter>
  </defs>
  <g id="sec" transform="translate(-515.5 -237)">
    <g id="Group_276" data-name="Group 276">
      <g id="TEXT" transform="translate(-95 84.67)">
        <g transform="matrix(1, 0, 0, 1, 610.5, 152.33)" filter="url(#Rectangle_5)">
          <rect id="Rectangle_5-2" data-name="Rectangle 5" width="407" height="20" transform="translate(365.5 275)" fill="#fff"/>
        </g>
        <text id="MY_WORK" data-name="MY WORK" transform="translate(755 487.33)" fill="#151d41" font-size="140" font-family="TrebuchetMS-Bold, Trebuchet MS" font-weight="700"><tspan x="0" y="0">MY </tspan><tspan y="0" fill="#0fbf61">WORK</tspan></text>
        <text id="Karim_Aldeen" data-name="Karim Aldeen" transform="translate(633 325.33)" fill="#151d41" font-size="140" font-family="TrebuchetMS-Bold, Trebuchet MS" font-weight="700"><tspan x="0" y="0">Karim Aldeen</tspan></text>
        <text id="welcome_im" data-name="welcome im" transform="translate(633 208.33)" fill="#0fbf61" font-size="60" font-family="TrebuchetMS-Bold, Trebuchet MS" font-weight="700"><tspan x="0" y="0">welcome im</tspan></text>
        <text id="Front-end_Designer" data-name="Front-end &amp; Designer" transform="translate(897 549.33)" fill="#151d41" font-size="34" font-family="SegoeUI, Segoe UI" letter-spacing="0.01em"><tspan x="0" y="0">Front-end &amp; Designer</tspan></text>
        <path id="Path_4" data-name="Path 4" d="M-.049,0H24.407a72.863,72.863,0,0,0-.725,9.66,81.183,81.183,0,0,0,.726,9.989H-.136Z" transform="translate(1111.452 427.659)" fill="#fff"/>
      </g>
      <g id="Group_275" data-name="Group 275">
        <g id="button" transform="translate(249 -113)">
          <g transform="matrix(1, 0, 0, 1, 266.5, 350)" filter="url(#Path_7)">
            <path id="Path_7-3" data-name="Path 7" d="M39,0A39,39,0,1,1,0,39,39,39,0,0,1,39,0Z" transform="translate(836.5 248)" fill="#fff"/>
          </g>
          <path id="play-button" d="M21.262,10.4,6.309.091A.516.516,0,0,0,5.5.515V21.14a.516.516,0,0,0,.809.424L21.262,11.252a.516.516,0,0,0,0-.849Z" transform="translate(1132.008 626.172)" fill="#0fbf61"/>
        </g>
        <g id="button-2" data-name="button" transform="translate(538 485)">
          <g transform="matrix(1, 0, 0, 1, -22.5, -248)" filter="url(#Path_7-2)">
            <path id="Path_7-4" data-name="Path 7" d="M39,0A39,39,0,1,0,78,39,39,39,0,0,0,39,0Z" transform="translate(22.5 248)" fill="#fff"/>
          </g>
          <path id="play-button-2" data-name="play-button" d="M5.723,10.4,20.676.091a.516.516,0,0,1,.809.424V21.14a.516.516,0,0,1-.809.424L5.723,11.252a.516.516,0,0,1,0-.849Z" transform="translate(22.008 28.172)" fill="#0fbf61"/>
        </g>
      </g>
    </g>
    <rect id="Rectangle_146" data-name="Rectangle 146" width="29" height="24" transform="translate(768.003 306.376)" fill="#fff"/>
  </g>
</svg>
