<svg xmlns="http://www.w3.org/2000/svg" width="163.958" height="164.165" viewBox="0 0 163.958 164.165">
  <g id="Layer_2" data-name="Layer 2" transform="translate(0 0.031)">
    <g id="OBJECTS" transform="translate(0 -0.031)">
      <path id="Path_711" data-name="Path 711" d="M94.095,164.134H69.76a5.619,5.619,0,0,0-.434-.638,27.782,27.782,0,0,0-20.683-8.963H0V38.35H19.176V19.276H38.3V.176A44.966,44.966,0,0,1,66.007,6.534,43.409,43.409,0,0,1,86.281,36.665l.868-.409A56.585,56.585,0,0,1,115.8,28.9h28.956V48.13h19.2v106.4H115.8a31.766,31.766,0,0,0-6.792.664,25.994,25.994,0,0,0-14.912,8.937Zm-7.277-31,1.43-.689A55.818,55.818,0,0,1,114.5,125.7h20.581V38.529h-20.3a46.779,46.779,0,0,0-26.684,8.426,2.911,2.911,0,0,0-1.277,2.732v83.447ZM9.627,48.232v96.674H48.516a37.587,37.587,0,0,1,24.615,8.886,3.294,3.294,0,0,0,1.838.715H88.911a3.269,3.269,0,0,0,1.838-.689,37.536,37.536,0,0,1,24.769-8.912h38.736V57.884h-9.575v77.5H114.906a41.366,41.366,0,0,0-22.981,6.256,19.023,19.023,0,0,1-13.15,3.319,4.9,4.9,0,0,1-2.349-.741,46.729,46.729,0,0,0-27.909-8.835H19.074V48.232Zm67.488,64.73V43.176a32.454,32.454,0,0,0-9.7-23.339,33.348,33.348,0,0,0-19.355-9.78V97.08a44.175,44.175,0,0,1,29.058,15.883Zm-.945,19.381a32.071,32.071,0,0,0-7.992-14.836C60.134,108.8,50,105.71,38.3,106.528V29.03H28.8v96.648H49.869a49.614,49.614,0,0,1,15.321,2.553C68.943,129.381,72.493,130.913,76.17,132.343Z" transform="translate(0 0.031)" fill="#fff"/>
    </g>
  </g>
</svg>
