<svg xmlns="http://www.w3.org/2000/svg" width="125.431" height="138.148" viewBox="0 0 125.431 138.148">
  <g id="Layer_2" data-name="Layer 2" transform="translate(0.013)">
    <g id="OBJECTS" transform="translate(-0.013 0)">
      <path id="Path_706" data-name="Path 706" d="M15.36,31.312a31.373,31.373,0,1,1,9.16,22.217,31.373,31.373,0,0,1-9.16-22.217Z" transform="translate(16.02 0)" fill="#fff"/>
      <path id="Path_707" data-name="Path 707" d="M51.983,33.74C49.941,39.864,48,45.661,46.1,51.4c-2.613,7.8-5.123,15.533-7.838,23.372A7.267,7.267,0,0,0,40.307,83.1C46.43,89.077,52.554,95.16,58.514,101.2l1.572,1.694H7.26c-4.8,0-7.246-2.47-7.246-7.205A167.95,167.95,0,0,1,.891,75.278C4.1,53.887,23.018,36.312,44.553,34.271,46.961,34.026,49.227,33.924,51.983,33.74Z" transform="translate(0.013 35.13)" fill="#fff"/>
      <path id="Path_708" data-name="Path 708" d="M40.134,33.857A46.478,46.478,0,0,1,61.5,37.939C81.162,47.145,91.368,62.7,92,84.438c.122,4.082,0,8.165,0,12.247a6.124,6.124,0,0,1-6,6.266H32.03c.694-.714,1.123-1.225,1.592-1.674,6.124-6.124,12.063-12.247,18.167-18.146a7.307,7.307,0,0,0,2.041-8.348c-4.368-12.839-8.614-25.739-12.921-38.6A18.291,18.291,0,0,0,40.134,33.857Z" transform="translate(33.376 35.197)" fill="#fff"/>
      <path id="Path_709" data-name="Path 709" d="M36.58,83.835c-3.817-3.8-7.512-7.471-11.145-11.186a1.592,1.592,0,0,1-.245-1.368C28.885,60.157,32.6,49.053,36.458,37.52c.388.878.653,1.347.816,1.857,3.47,10.369,6.92,20.759,10.431,31.128a2.327,2.327,0,0,1-.653,2.878C43.541,76.772,40.132,80.283,36.58,83.835Z" transform="translate(26.193 39.066)" fill="#fff"/>
    </g>
  </g>
</svg>
