<svg xmlns="http://www.w3.org/2000/svg" width="170.929" height="170.927" viewBox="0 0 170.929 170.927">
  <g id="Layer_2" data-name="Layer 2" transform="translate(0 -0.026)">
    <g id="OBJECTS" transform="translate(0 0.026)">
      <path id="Path_710" data-name="Path 710" d="M0,90.827V80.162A9.767,9.767,0,0,1,.281,78.7c.691-4.322,1.049-8.747,2.072-12.992a85.446,85.446,0,1,1,97.824,103.937c-3.12.537-6.266.87-9.386,1.3H80.1l-1.1-.281c-3.913-.563-7.852-.946-11.688-1.714A85.446,85.446,0,0,1,1.33,100.546C.818,97.323.435,94.075,0,90.827Zm43.682-40.92-19.9-7.8A71.252,71.252,0,0,0,10.409,80.469H39.795c1.3-10.332,2.609-20.434,3.887-30.46ZM39.795,90.6H10.23a74.474,74.474,0,0,0,13.529,38.363l19.948-7.928Q41.764,105.942,39.795,90.6ZM147.21,42l-19.948,7.928c1.279,10.077,2.557,20.179,3.862,30.383h29.565a74.474,74.474,0,0,0-13.5-38.235Zm-.153,86.955a74.7,74.7,0,0,0,13.657-38.49H131.1c-1.3,10.23-2.558,20.46-3.887,30.69,3.095,1.074,6.5,2.148,9.8,3.453s6.573,2.941,10.025,4.476ZM53.963,52.567c-1.918,6.24-4.118,24.475-3.35,27.8H80.331V55.585Zm66.495,27.826a138.54,138.54,0,0,0-3.529-27.826L90.535,55.559V80.393ZM80.305,90.623H50.357a138.1,138.1,0,0,0,3.529,27.826l26.521-3.018Zm10.23,24.808,26.47,3.018a137.619,137.619,0,0,0,3.5-27.826H90.561Zm0-104.423V45.176a138.462,138.462,0,0,0,23.631-2.685c-.742-1.995-1.381-3.76-2.072-5.5a59.181,59.181,0,0,0-12.353-20.1,23.682,23.682,0,0,0-9.13-5.908Zm-10.23-.281C66.648,17.3,61.482,29.7,56.5,42.542A137.848,137.848,0,0,0,80.305,45.1ZM56.444,128.141c1.381,3.4,2.43,6.266,3.657,9.028a49.053,49.053,0,0,0,13.478,18.977,71.606,71.606,0,0,0,6.752,4.245v-34.91Zm57.876.332a140.152,140.152,0,0,0-23.734-2.558v34.347c13.555-6.573,18.721-18.925,23.734-31.79Zm10-88.106,16.342-6.291a75.165,75.165,0,0,0-29.1-19.386c2.4,4.118,4.936,8.107,7.033,12.3S122.325,35.611,124.32,40.368Zm16.342,96.52-16.342-6.24c-2.02,4.757-3.657,9.181-5.729,13.376s-4.655,8.158-7.033,12.276a75.318,75.318,0,0,0,29.1-19.411ZM46.828,40.444A92.325,92.325,0,0,1,59.615,14.869,73.5,73.5,0,0,0,30.383,34.153Zm0,90.075-16.547,6.394A73.5,73.5,0,0,0,59.513,156.2,91.84,91.84,0,0,1,46.828,130.52Z" transform="translate(0 -0.026)" fill="#fff"/>
    </g>
  </g>
</svg>
